solid OpenSCAD_Model
  facet normal -1 0 0
    outer loop
      vertex 27 0 16
      vertex 27 2.4 17.6
      vertex 27 2.4 16
    endloop
  endfacet
  facet normal -1 -0 0
    outer loop
      vertex 27 2.4 17.6
      vertex 27 0 16
      vertex 27 0 17.6
    endloop
  endfacet
  facet normal 0 0 -1
    outer loop
      vertex 19 0 17.6
      vertex 27 2.4 17.6
      vertex 27 0 17.6
    endloop
  endfacet
  facet normal -0 0 -1
    outer loop
      vertex 27 2.4 17.6
      vertex 19 0 17.6
      vertex 19 2.4 17.6
    endloop
  endfacet
  facet normal -0 0 1
    outer loop
      vertex 19 2.4 16
      vertex 27 0 16
      vertex 27 2.4 16
    endloop
  endfacet
  facet normal 0 0 1
    outer loop
      vertex 27 0 16
      vertex 19 2.4 16
      vertex 19 0 16
    endloop
  endfacet
  facet normal 1 -0 0
    outer loop
      vertex 19 0 17.6
      vertex 19 2.4 16
      vertex 19 2.4 17.6
    endloop
  endfacet
  facet normal 1 0 0
    outer loop
      vertex 19 2.4 16
      vertex 19 0 17.6
      vertex 19 0 16
    endloop
  endfacet
  facet normal -1 0 0
    outer loop
      vertex 27 53.6 16
      vertex 27 56 17.6
      vertex 27 56 16
    endloop
  endfacet
  facet normal -1 -0 0
    outer loop
      vertex 27 56 17.6
      vertex 27 53.6 16
      vertex 27 53.6 17.6
    endloop
  endfacet
  facet normal 0 0 -1
    outer loop
      vertex 19 53.6 17.6
      vertex 27 56 17.6
      vertex 27 53.6 17.6
    endloop
  endfacet
  facet normal -0 0 -1
    outer loop
      vertex 27 56 17.6
      vertex 19 53.6 17.6
      vertex 19 56 17.6
    endloop
  endfacet
  facet normal -0 0 1
    outer loop
      vertex 19 56 16
      vertex 27 53.6 16
      vertex 27 56 16
    endloop
  endfacet
  facet normal 0 0 1
    outer loop
      vertex 27 53.6 16
      vertex 19 56 16
      vertex 19 53.6 16
    endloop
  endfacet
  facet normal 1 -0 0
    outer loop
      vertex 19 53.6 17.6
      vertex 19 56 16
      vertex 19 56 17.6
    endloop
  endfacet
  facet normal 1 0 0
    outer loop
      vertex 19 56 16
      vertex 19 53.6 17.6
      vertex 19 53.6 16
    endloop
  endfacet
  facet normal -1 0 0
    outer loop
      vertex 73 0 16
      vertex 73 2.4 17.6
      vertex 73 2.4 16
    endloop
  endfacet
  facet normal -1 -0 0
    outer loop
      vertex 73 2.4 17.6
      vertex 73 0 16
      vertex 73 0 17.6
    endloop
  endfacet
  facet normal 0 0 -1
    outer loop
      vertex 65 0 17.6
      vertex 73 2.4 17.6
      vertex 73 0 17.6
    endloop
  endfacet
  facet normal -0 0 -1
    outer loop
      vertex 73 2.4 17.6
      vertex 65 0 17.6
      vertex 65 2.4 17.6
    endloop
  endfacet
  facet normal -0 0 1
    outer loop
      vertex 65 2.4 16
      vertex 73 0 16
      vertex 73 2.4 16
    endloop
  endfacet
  facet normal 0 0 1
    outer loop
      vertex 73 0 16
      vertex 65 2.4 16
      vertex 65 0 16
    endloop
  endfacet
  facet normal 1 -0 0
    outer loop
      vertex 65 0 17.6
      vertex 65 2.4 16
      vertex 65 2.4 17.6
    endloop
  endfacet
  facet normal 1 0 0
    outer loop
      vertex 65 2.4 16
      vertex 65 0 17.6
      vertex 65 0 16
    endloop
  endfacet
  facet normal -1 0 0
    outer loop
      vertex 73 53.6 16
      vertex 73 56 17.6
      vertex 73 56 16
    endloop
  endfacet
  facet normal -1 -0 0
    outer loop
      vertex 73 56 17.6
      vertex 73 53.6 16
      vertex 73 53.6 17.6
    endloop
  endfacet
  facet normal 0 0 -1
    outer loop
      vertex 65 53.6 17.6
      vertex 73 56 17.6
      vertex 73 53.6 17.6
    endloop
  endfacet
  facet normal -0 0 -1
    outer loop
      vertex 73 56 17.6
      vertex 65 53.6 17.6
      vertex 65 56 17.6
    endloop
  endfacet
  facet normal -0 0 1
    outer loop
      vertex 65 56 16
      vertex 73 53.6 16
      vertex 73 56 16
    endloop
  endfacet
  facet normal 0 0 1
    outer loop
      vertex 73 53.6 16
      vertex 65 56 16
      vertex 65 53.6 16
    endloop
  endfacet
  facet normal 1 -0 0
    outer loop
      vertex 65 53.6 17.6
      vertex 65 56 16
      vertex 65 56 17.6
    endloop
  endfacet
  facet normal 1 0 0
    outer loop
      vertex 65 56 16
      vertex 65 53.6 17.6
      vertex 65 53.6 16
    endloop
  endfacet
  facet normal -0.896878 0.442277 0
    outer loop
      vertex 0.190301 54.4567 0
      vertex 0.334936 54.75 18.6
      vertex 0.334936 54.75 0
    endloop
  endfacet
  facet normal -0.896878 0.442277 0
    outer loop
      vertex 0.334936 54.75 18.6
      vertex 0.190301 54.4567 0
      vertex 0.190301 54.4567 18.6
    endloop
  endfacet
  facet normal -0.831466 0.555575 0
    outer loop
      vertex 0.334936 54.75 0
      vertex 0.516616 55.0219 18.6
      vertex 0.516616 55.0219 0
    endloop
  endfacet
  facet normal -0.831466 0.555575 0
    outer loop
      vertex 0.516616 55.0219 18.6
      vertex 0.334936 54.75 0
      vertex 0.334936 54.75 18.6
    endloop
  endfacet
  facet normal 0.997857 -0.0654392 0
    outer loop
      vertex 91.9786 2.17368 18.6
      vertex 92 2.5 0
      vertex 92 2.5 18.6
    endloop
  endfacet
  facet normal 0.997857 -0.0654392 0
    outer loop
      vertex 92 2.5 0
      vertex 91.9786 2.17368 18.6
      vertex 91.9786 2.17368 0
    endloop
  endfacet
  facet normal -0.94693 -0.321441 0
    outer loop
      vertex 0.190301 1.54329 0
      vertex 0.0851851 1.85295 18.6
      vertex 0.0851851 1.85295 0
    endloop
  endfacet
  facet normal -0.94693 -0.321441 0
    outer loop
      vertex 0.0851851 1.85295 18.6
      vertex 0.190301 1.54329 0
      vertex 0.190301 1.54329 18.6
    endloop
  endfacet
  facet normal -0.659344 -0.751841 0
    outer loop
      vertex 0.732232 0.732232 0
      vertex 0.978096 0.516616 18.6
      vertex 0.732232 0.732232 18.6
    endloop
  endfacet
  facet normal -0.659344 -0.751841 -0
    outer loop
      vertex 0.978096 0.516616 18.6
      vertex 0.732232 0.732232 0
      vertex 0.978096 0.516616 0
    endloop
  endfacet
  facet normal -1 0 0
    outer loop
      vertex 0 53.5 0
      vertex 0 31.2 8.35
      vertex 0 53.5 18.6
    endloop
  endfacet
  facet normal -1 0 0
    outer loop
      vertex 0 53.5 0
      vertex 0 31.1726 7.93232
      vertex 0 31.2 8.35
    endloop
  endfacet
  facet normal -1 0 0
    outer loop
      vertex 0 53.5 0
      vertex 0 31.091 7.52178
      vertex 0 31.1726 7.93232
    endloop
  endfacet
  facet normal -1 0 0
    outer loop
      vertex 0 53.5 0
      vertex 0 30.9564 7.12541
      vertex 0 31.091 7.52178
    endloop
  endfacet
  facet normal -1 0 0
    outer loop
      vertex 0 53.5 0
      vertex 0 30.7713 6.75
      vertex 0 30.9564 7.12541
    endloop
  endfacet
  facet normal -1 0 0
    outer loop
      vertex 0 53.5 0
      vertex 0 30.5387 6.40196
      vertex 0 30.7713 6.75
    endloop
  endfacet
  facet normal -1 0 0
    outer loop
      vertex 0 53.5 0
      vertex 0 30.2627 6.08726
      vertex 0 30.5387 6.40196
    endloop
  endfacet
  facet normal -1 0 0
    outer loop
      vertex 0 53.5 0
      vertex 0 29.948 5.81127
      vertex 0 30.2627 6.08726
    endloop
  endfacet
  facet normal -1 0 0
    outer loop
      vertex 0 53.5 0
      vertex 0 29.6 5.57872
      vertex 0 29.948 5.81127
    endloop
  endfacet
  facet normal -1 0 0
    outer loop
      vertex 0 53.5 0
      vertex 0 29.2246 5.39359
      vertex 0 29.6 5.57872
    endloop
  endfacet
  facet normal -1 0 0
    outer loop
      vertex 0 53.5 0
      vertex 0 28.8282 5.25904
      vertex 0 29.2246 5.39359
    endloop
  endfacet
  facet normal -1 0 0
    outer loop
      vertex 0 53.5 0
      vertex 0 28.4177 5.17738
      vertex 0 28.8282 5.25904
    endloop
  endfacet
  facet normal -1 0 0
    outer loop
      vertex 0 53.5 0
      vertex 0 28 5.15
      vertex 0 28.4177 5.17738
    endloop
  endfacet
  facet normal -1 0 0
    outer loop
      vertex 0 2.5 0
      vertex 0 28 5.15
      vertex 0 53.5 0
    endloop
  endfacet
  facet normal -1 -0 0
    outer loop
      vertex 0 28 5.15
      vertex 0 2.5 0
      vertex 0 27.5823 5.17738
    endloop
  endfacet
  facet normal -1 -0 0
    outer loop
      vertex 0 24.8274 7.93232
      vertex 0 2.5 0
      vertex 0 24.8 8.35
    endloop
  endfacet
  facet normal -1 -0 0
    outer loop
      vertex 0 24.909 7.52178
      vertex 0 2.5 0
      vertex 0 24.8274 7.93232
    endloop
  endfacet
  facet normal -1 -0 0
    outer loop
      vertex 0 25.0436 7.12541
      vertex 0 2.5 0
      vertex 0 24.909 7.52178
    endloop
  endfacet
  facet normal -1 -0 0
    outer loop
      vertex 0 25.2287 6.75
      vertex 0 2.5 0
      vertex 0 25.0436 7.12541
    endloop
  endfacet
  facet normal -1 -0 0
    outer loop
      vertex 0 25.4613 6.40196
      vertex 0 2.5 0
      vertex 0 25.2287 6.75
    endloop
  endfacet
  facet normal -1 -0 0
    outer loop
      vertex 0 25.7373 6.08726
      vertex 0 2.5 0
      vertex 0 25.4613 6.40196
    endloop
  endfacet
  facet normal -1 -0 0
    outer loop
      vertex 0 26.052 5.81127
      vertex 0 2.5 0
      vertex 0 25.7373 6.08726
    endloop
  endfacet
  facet normal -1 -0 0
    outer loop
      vertex 0 26.4 5.57872
      vertex 0 2.5 0
      vertex 0 26.052 5.81127
    endloop
  endfacet
  facet normal -1 -0 0
    outer loop
      vertex 0 26.7754 5.39359
      vertex 0 2.5 0
      vertex 0 26.4 5.57872
    endloop
  endfacet
  facet normal -1 -0 0
    outer loop
      vertex 0 27.1718 5.25904
      vertex 0 2.5 0
      vertex 0 26.7754 5.39359
    endloop
  endfacet
  facet normal -1 -0 0
    outer loop
      vertex 0 27.5823 5.17738
      vertex 0 2.5 0
      vertex 0 27.1718 5.25904
    endloop
  endfacet
  facet normal -1 0 0
    outer loop
      vertex 0 31.1726 8.76768
      vertex 0 53.5 18.6
      vertex 0 31.2 8.35
    endloop
  endfacet
  facet normal -1 0 0
    outer loop
      vertex 0 31.091 9.17822
      vertex 0 53.5 18.6
      vertex 0 31.1726 8.76768
    endloop
  endfacet
  facet normal -1 0 0
    outer loop
      vertex 0 30.9564 9.57459
      vertex 0 53.5 18.6
      vertex 0 31.091 9.17822
    endloop
  endfacet
  facet normal -1 0 0
    outer loop
      vertex 0 30.7713 9.95
      vertex 0 53.5 18.6
      vertex 0 30.9564 9.57459
    endloop
  endfacet
  facet normal -1 0 0
    outer loop
      vertex 0 30.5387 10.298
      vertex 0 53.5 18.6
      vertex 0 30.7713 9.95
    endloop
  endfacet
  facet normal -1 0 0
    outer loop
      vertex 0 30.2627 10.6127
      vertex 0 53.5 18.6
      vertex 0 30.5387 10.298
    endloop
  endfacet
  facet normal -1 0 0
    outer loop
      vertex 0 29.948 10.8887
      vertex 0 53.5 18.6
      vertex 0 30.2627 10.6127
    endloop
  endfacet
  facet normal -1 0 0
    outer loop
      vertex 0 29.6 11.1213
      vertex 0 53.5 18.6
      vertex 0 29.948 10.8887
    endloop
  endfacet
  facet normal -1 0 0
    outer loop
      vertex 0 29.2246 11.3064
      vertex 0 53.5 18.6
      vertex 0 29.6 11.1213
    endloop
  endfacet
  facet normal -1 0 0
    outer loop
      vertex 0 28.8282 11.441
      vertex 0 53.5 18.6
      vertex 0 29.2246 11.3064
    endloop
  endfacet
  facet normal -1 0 0
    outer loop
      vertex 0 28.4177 11.5226
      vertex 0 53.5 18.6
      vertex 0 28.8282 11.441
    endloop
  endfacet
  facet normal -1 0 0
    outer loop
      vertex 0 28 11.55
      vertex 0 53.5 18.6
      vertex 0 28.4177 11.5226
    endloop
  endfacet
  facet normal -1 0 0
    outer loop
      vertex 0 2.5 18.6
      vertex 0 28 11.55
      vertex 0 27.5823 11.5226
    endloop
  endfacet
  facet normal -1 0 0
    outer loop
      vertex 0 2.5 18.6
      vertex 0 27.5823 11.5226
      vertex 0 27.1718 11.441
    endloop
  endfacet
  facet normal -1 0 0
    outer loop
      vertex 0 2.5 0
      vertex 0 24.8274 8.76768
      vertex 0 24.8 8.35
    endloop
  endfacet
  facet normal -1 0 0
    outer loop
      vertex 0 2.5 18.6
      vertex 0 24.8274 8.76768
      vertex 0 2.5 0
    endloop
  endfacet
  facet normal -1 0 0
    outer loop
      vertex 0 24.8274 8.76768
      vertex 0 2.5 18.6
      vertex 0 24.909 9.17822
    endloop
  endfacet
  facet normal -1 0 0
    outer loop
      vertex 0 24.909 9.17822
      vertex 0 2.5 18.6
      vertex 0 25.0436 9.57459
    endloop
  endfacet
  facet normal -1 0 0
    outer loop
      vertex 0 25.0436 9.57459
      vertex 0 2.5 18.6
      vertex 0 25.2287 9.95
    endloop
  endfacet
  facet normal -1 0 0
    outer loop
      vertex 0 25.2287 9.95
      vertex 0 2.5 18.6
      vertex 0 25.4613 10.298
    endloop
  endfacet
  facet normal -1 0 0
    outer loop
      vertex 0 25.4613 10.298
      vertex 0 2.5 18.6
      vertex 0 25.7373 10.6127
    endloop
  endfacet
  facet normal -1 0 0
    outer loop
      vertex 0 25.7373 10.6127
      vertex 0 2.5 18.6
      vertex 0 26.052 10.8887
    endloop
  endfacet
  facet normal -1 0 0
    outer loop
      vertex 0 26.052 10.8887
      vertex 0 2.5 18.6
      vertex 0 26.4 11.1213
    endloop
  endfacet
  facet normal -1 0 0
    outer loop
      vertex 0 28 11.55
      vertex 0 2.5 18.6
      vertex 0 53.5 18.6
    endloop
  endfacet
  facet normal -1 0 0
    outer loop
      vertex 0 26.7754 11.3064
      vertex 0 2.5 18.6
      vertex 0 27.1718 11.441
    endloop
  endfacet
  facet normal -1 0 0
    outer loop
      vertex 0 26.4 11.1213
      vertex 0 2.5 18.6
      vertex 0 26.7754 11.3064
    endloop
  endfacet
  facet normal 0.65929 -0.751889 0
    outer loop
      vertex 91.0219 0.516616 0
      vertex 91.2678 0.732232 18.6
      vertex 91.0219 0.516616 18.6
    endloop
  endfacet
  facet normal 0.65929 -0.751889 0
    outer loop
      vertex 91.2678 0.732232 18.6
      vertex 91.0219 0.516616 0
      vertex 91.2678 0.732232 0
    endloop
  endfacet
  facet normal 0.659262 0.751913 -0
    outer loop
      vertex 91.2678 55.2678 0
      vertex 91.0219 55.4834 18.6
      vertex 91.2678 55.2678 18.6
    endloop
  endfacet
  facet normal 0.659262 0.751913 0
    outer loop
      vertex 91.0219 55.4834 18.6
      vertex 91.2678 55.2678 0
      vertex 91.0219 55.4834 0
    endloop
  endfacet
  facet normal 0 -1 0
    outer loop
      vertex 27 0 16
      vertex 65 0 17.6
      vertex 27 0 17.6
    endloop
  endfacet
  facet normal 0 -1 -0
    outer loop
      vertex 65 0 17.6
      vertex 27 0 16
      vertex 65 0 16
    endloop
  endfacet
  facet normal 0 -1 0
    outer loop
      vertex 27 0 17.6
      vertex 2.5 0 18.6
      vertex 19 0 17.6
    endloop
  endfacet
  facet normal 0 -1 0
    outer loop
      vertex 2.5 0 18.6
      vertex 19 0 16
      vertex 19 0 17.6
    endloop
  endfacet
  facet normal 0 -1 0
    outer loop
      vertex 2.5 0 0
      vertex 27 0 16
      vertex 19 0 16
    endloop
  endfacet
  facet normal 0 -1 -0
    outer loop
      vertex 27 0 16
      vertex 2.5 0 0
      vertex 65 0 16
    endloop
  endfacet
  facet normal 0 -1 0
    outer loop
      vertex 89.5 0 0
      vertex 65 0 16
      vertex 2.5 0 0
    endloop
  endfacet
  facet normal 0 -1 0
    outer loop
      vertex 2.5 0 0
      vertex 19 0 16
      vertex 2.5 0 18.6
    endloop
  endfacet
  facet normal 0 -1 0
    outer loop
      vertex 2.5 0 18.6
      vertex 27 0 17.6
      vertex 89.5 0 18.6
    endloop
  endfacet
  facet normal 0 -1 0
    outer loop
      vertex 65 0 17.6
      vertex 89.5 0 18.6
      vertex 27 0 17.6
    endloop
  endfacet
  facet normal 0 -1 0
    outer loop
      vertex 73 0 17.6
      vertex 89.5 0 18.6
      vertex 65 0 17.6
    endloop
  endfacet
  facet normal 0 -1 0
    outer loop
      vertex 73 0 16
      vertex 89.5 0 18.6
      vertex 73 0 17.6
    endloop
  endfacet
  facet normal 0 -1 0
    outer loop
      vertex 65 0 16
      vertex 89.5 0 0
      vertex 73 0 16
    endloop
  endfacet
  facet normal 0 -1 0
    outer loop
      vertex 73 0 16
      vertex 89.5 0 0
      vertex 89.5 0 18.6
    endloop
  endfacet
  facet normal 0.946944 -0.321397 0
    outer loop
      vertex 91.8097 1.54329 18.6
      vertex 91.9148 1.85295 0
      vertex 91.9148 1.85295 18.6
    endloop
  endfacet
  facet normal 0.946944 -0.321397 0
    outer loop
      vertex 91.9148 1.85295 0
      vertex 91.8097 1.54329 18.6
      vertex 91.8097 1.54329 0
    endloop
  endfacet
  facet normal 0.442277 -0.896878 0
    outer loop
      vertex 90.4567 0.190301 0
      vertex 90.75 0.334936 18.6
      vertex 90.4567 0.190301 18.6
    endloop
  endfacet
  facet normal 0.442277 -0.896878 0
    outer loop
      vertex 90.75 0.334936 18.6
      vertex 90.4567 0.190301 0
      vertex 90.75 0.334936 0
    endloop
  endfacet
  facet normal 1 0 0
    outer loop
      vertex 92 53.5 18.6
      vertex 92 32.65 8.59
      vertex 92 53.5 0
    endloop
  endfacet
  facet normal 1 -0 0
    outer loop
      vertex 92 2.5 18.6
      vertex 92 32.65 8.59
      vertex 92 53.5 18.6
    endloop
  endfacet
  facet normal 1 0 0
    outer loop
      vertex 92 2.5 0
      vertex 92 22.15 8.59
      vertex 92 2.5 18.6
    endloop
  endfacet
  facet normal 1 0 0
    outer loop
      vertex 92 32.65 8.59
      vertex 92 2.5 18.6
      vertex 92 22.15 8.59
    endloop
  endfacet
  facet normal 1 -0 0
    outer loop
      vertex 92 32.65 3.59
      vertex 92 53.5 0
      vertex 92 32.65 8.59
    endloop
  endfacet
  facet normal 1 0 0
    outer loop
      vertex 92 2.5 0
      vertex 92 32.65 3.59
      vertex 92 22.15 3.59
    endloop
  endfacet
  facet normal 1 0 0
    outer loop
      vertex 92 32.65 3.59
      vertex 92 2.5 0
      vertex 92 53.5 0
    endloop
  endfacet
  facet normal 1 0 0
    outer loop
      vertex 92 22.15 8.59
      vertex 92 2.5 0
      vertex 92 22.15 3.59
    endloop
  endfacet
  facet normal -0.83147 -0.555569 0
    outer loop
      vertex 0.516616 0.978096 0
      vertex 0.334936 1.25 18.6
      vertex 0.334936 1.25 0
    endloop
  endfacet
  facet normal -0.83147 -0.555569 0
    outer loop
      vertex 0.334936 1.25 18.6
      vertex 0.516616 0.978096 0
      vertex 0.516616 0.978096 18.6
    endloop
  endfacet
  facet normal 0.997856 0.0654432 0
    outer loop
      vertex 92 53.5 18.6
      vertex 91.9786 53.8263 0
      vertex 91.9786 53.8263 18.6
    endloop
  endfacet
  facet normal 0.997856 0.0654432 0
    outer loop
      vertex 91.9786 53.8263 0
      vertex 92 53.5 18.6
      vertex 92 53.5 0
    endloop
  endfacet
  facet normal -0.0654392 0.997857 0
    outer loop
      vertex 2.5 56 0
      vertex 2.17368 55.9786 18.6
      vertex 2.5 56 18.6
    endloop
  endfacet
  facet normal -0.0654392 0.997857 0
    outer loop
      vertex 2.17368 55.9786 18.6
      vertex 2.5 56 0
      vertex 2.17368 55.9786 0
    endloop
  endfacet
  facet normal -0.946942 0.321404 0
    outer loop
      vertex 0.0851851 54.147 0
      vertex 0.190301 54.4567 18.6
      vertex 0.190301 54.4567 0
    endloop
  endfacet
  facet normal -0.946942 0.321404 0
    outer loop
      vertex 0.190301 54.4567 18.6
      vertex 0.0851851 54.147 0
      vertex 0.0851851 54.147 18.6
    endloop
  endfacet
  facet normal 0.896915 -0.442204 0
    outer loop
      vertex 91.6651 1.25 18.6
      vertex 91.8097 1.54329 0
      vertex 91.8097 1.54329 18.6
    endloop
  endfacet
  facet normal 0.896915 -0.442204 0
    outer loop
      vertex 91.8097 1.54329 0
      vertex 91.6651 1.25 18.6
      vertex 91.6651 1.25 0
    endloop
  endfacet
  facet normal -0.442204 0.896915 0
    outer loop
      vertex 1.54329 55.8097 0
      vertex 1.25 55.6651 18.6
      vertex 1.54329 55.8097 18.6
    endloop
  endfacet
  facet normal -0.442204 0.896915 0
    outer loop
      vertex 1.25 55.6651 18.6
      vertex 1.54329 55.8097 0
      vertex 1.25 55.6651 0
    endloop
  endfacet
  facet normal -0.980785 -0.195093 0
    outer loop
      vertex 0.0851851 1.85295 0
      vertex 0.0213871 2.17368 18.6
      vertex 0.0213871 2.17368 0
    endloop
  endfacet
  facet normal -0.980785 -0.195093 0
    outer loop
      vertex 0.0213871 2.17368 18.6
      vertex 0.0851851 1.85295 0
      vertex 0.0851851 1.85295 18.6
    endloop
  endfacet
  facet normal -0.0654 -0.997859 0
    outer loop
      vertex 2.17368 0.0213871 0
      vertex 2.5 0 18.6
      vertex 2.17368 0.0213871 18.6
    endloop
  endfacet
  facet normal -0.0654 -0.997859 -0
    outer loop
      vertex 2.5 0 18.6
      vertex 2.17368 0.0213871 0
      vertex 2.5 0 0
    endloop
  endfacet
  facet normal -0.980781 0.19511 0
    outer loop
      vertex 0.0213871 53.8263 0
      vertex 0.0851851 54.147 18.6
      vertex 0.0851851 54.147 0
    endloop
  endfacet
  facet normal -0.980781 0.19511 0
    outer loop
      vertex 0.0851851 54.147 18.6
      vertex 0.0213871 53.8263 0
      vertex 0.0213871 53.8263 18.6
    endloop
  endfacet
  facet normal -0.555612 0.831442 0
    outer loop
      vertex 1.25 55.6651 0
      vertex 0.978096 55.4834 18.6
      vertex 1.25 55.6651 18.6
    endloop
  endfacet
  facet normal -0.555612 0.831442 0
    outer loop
      vertex 0.978096 55.4834 18.6
      vertex 1.25 55.6651 0
      vertex 0.978096 55.4834 0
    endloop
  endfacet
  facet normal -0.751889 0.65929 0
    outer loop
      vertex 0.516616 55.0219 0
      vertex 0.732232 55.2678 18.6
      vertex 0.732232 55.2678 0
    endloop
  endfacet
  facet normal -0.751889 0.65929 0
    outer loop
      vertex 0.732232 55.2678 18.6
      vertex 0.516616 55.0219 0
      vertex 0.516616 55.0219 18.6
    endloop
  endfacet
  facet normal 0 1 -0
    outer loop
      vertex 65 56 16
      vertex 27 56 17.6
      vertex 65 56 17.6
    endloop
  endfacet
  facet normal 0 1 0
    outer loop
      vertex 27 56 17.6
      vertex 65 56 16
      vertex 27 56 16
    endloop
  endfacet
  facet normal 0 1 0
    outer loop
      vertex 65 56 17.6
      vertex 89.5 56 18.6
      vertex 73 56 17.6
    endloop
  endfacet
  facet normal 0 1 0
    outer loop
      vertex 89.5 56 18.6
      vertex 73 56 16
      vertex 73 56 17.6
    endloop
  endfacet
  facet normal 0 1 0
    outer loop
      vertex 89.5 56 0
      vertex 65 56 16
      vertex 73 56 16
    endloop
  endfacet
  facet normal 0 1 0
    outer loop
      vertex 65 56 16
      vertex 89.5 56 0
      vertex 27 56 16
    endloop
  endfacet
  facet normal 0 1 0
    outer loop
      vertex 2.5 56 0
      vertex 27 56 16
      vertex 89.5 56 0
    endloop
  endfacet
  facet normal 0 1 -0
    outer loop
      vertex 89.5 56 0
      vertex 73 56 16
      vertex 89.5 56 18.6
    endloop
  endfacet
  facet normal 0 1 0
    outer loop
      vertex 89.5 56 18.6
      vertex 65 56 17.6
      vertex 2.5 56 18.6
    endloop
  endfacet
  facet normal 0 1 -0
    outer loop
      vertex 27 56 17.6
      vertex 2.5 56 18.6
      vertex 65 56 17.6
    endloop
  endfacet
  facet normal 0 1 -0
    outer loop
      vertex 19 56 17.6
      vertex 2.5 56 18.6
      vertex 27 56 17.6
    endloop
  endfacet
  facet normal 0 1 -0
    outer loop
      vertex 19 56 16
      vertex 2.5 56 18.6
      vertex 19 56 17.6
    endloop
  endfacet
  facet normal 0 1 0
    outer loop
      vertex 27 56 16
      vertex 2.5 56 0
      vertex 19 56 16
    endloop
  endfacet
  facet normal 0 1 0
    outer loop
      vertex 19 56 16
      vertex 2.5 56 0
      vertex 2.5 56 18.6
    endloop
  endfacet
  facet normal 0.32136 0.946957 -0
    outer loop
      vertex 90.4567 55.8097 0
      vertex 90.147 55.9148 18.6
      vertex 90.4567 55.8097 18.6
    endloop
  endfacet
  facet normal 0.32136 0.946957 0
    outer loop
      vertex 90.147 55.9148 18.6
      vertex 90.4567 55.8097 0
      vertex 90.147 55.9148 0
    endloop
  endfacet
  facet normal 0.751913 0.659262 0
    outer loop
      vertex 91.4834 55.0219 18.6
      vertex 91.2678 55.2678 0
      vertex 91.2678 55.2678 18.6
    endloop
  endfacet
  facet normal 0.751913 0.659262 0
    outer loop
      vertex 91.2678 55.2678 0
      vertex 91.4834 55.0219 18.6
      vertex 91.4834 55.0219 0
    endloop
  endfacet
  facet normal 0.896921 0.442191 0
    outer loop
      vertex 91.8097 54.4567 18.6
      vertex 91.6651 54.75 0
      vertex 91.6651 54.75 18.6
    endloop
  endfacet
  facet normal 0.896921 0.442191 0
    outer loop
      vertex 91.6651 54.75 0
      vertex 91.8097 54.4567 18.6
      vertex 91.8097 54.4567 0
    endloop
  endfacet
  facet normal -0.997859 0.0654039 0
    outer loop
      vertex 0 53.5 0
      vertex 0.0213871 53.8263 18.6
      vertex 0.0213871 53.8263 0
    endloop
  endfacet
  facet normal -0.997859 0.0654039 0
    outer loop
      vertex 0.0213871 53.8263 18.6
      vertex 0 53.5 0
      vertex 0 53.5 18.6
    endloop
  endfacet
  facet normal 0.980784 -0.195099 0
    outer loop
      vertex 91.9148 1.85295 18.6
      vertex 91.9786 2.17368 0
      vertex 91.9786 2.17368 18.6
    endloop
  endfacet
  facet normal 0.980784 -0.195099 0
    outer loop
      vertex 91.9786 2.17368 0
      vertex 91.9148 1.85295 18.6
      vertex 91.9148 1.85295 0
    endloop
  endfacet
  facet normal -0.659317 0.751865 0
    outer loop
      vertex 0.978096 55.4834 0
      vertex 0.732232 55.2678 18.6
      vertex 0.978096 55.4834 18.6
    endloop
  endfacet
  facet normal -0.659317 0.751865 0
    outer loop
      vertex 0.732232 55.2678 18.6
      vertex 0.978096 55.4834 0
      vertex 0.732232 55.2678 0
    endloop
  endfacet
  facet normal -0.195093 -0.980785 0
    outer loop
      vertex 1.85295 0.0851851 0
      vertex 2.17368 0.0213871 18.6
      vertex 1.85295 0.0851851 18.6
    endloop
  endfacet
  facet normal -0.195093 -0.980785 -0
    outer loop
      vertex 2.17368 0.0213871 18.6
      vertex 1.85295 0.0851851 0
      vertex 2.17368 0.0213871 0
    endloop
  endfacet
  facet normal -0.321397 0.946944 0
    outer loop
      vertex 1.85295 55.9148 0
      vertex 1.54329 55.8097 18.6
      vertex 1.85295 55.9148 18.6
    endloop
  endfacet
  facet normal -0.321397 0.946944 0
    outer loop
      vertex 1.54329 55.8097 18.6
      vertex 1.85295 55.9148 0
      vertex 1.54329 55.8097 0
    endloop
  endfacet
  facet normal 0.946957 0.32136 0
    outer loop
      vertex 91.9148 54.147 18.6
      vertex 91.8097 54.4567 0
      vertex 91.8097 54.4567 18.6
    endloop
  endfacet
  facet normal 0.946957 0.32136 0
    outer loop
      vertex 91.8097 54.4567 0
      vertex 91.9148 54.147 18.6
      vertex 91.9148 54.147 0
    endloop
  endfacet
  facet normal 0.19511 -0.980781 0
    outer loop
      vertex 89.8263 0.0213871 0
      vertex 90.147 0.0851851 18.6
      vertex 89.8263 0.0213871 18.6
    endloop
  endfacet
  facet normal 0.19511 -0.980781 0
    outer loop
      vertex 90.147 0.0851851 18.6
      vertex 89.8263 0.0213871 0
      vertex 90.147 0.0851851 0
    endloop
  endfacet
  facet normal -0.555569 -0.83147 0
    outer loop
      vertex 0.978096 0.516616 0
      vertex 1.25 0.334936 18.6
      vertex 0.978096 0.516616 18.6
    endloop
  endfacet
  facet normal -0.555569 -0.83147 -0
    outer loop
      vertex 1.25 0.334936 18.6
      vertex 0.978096 0.516616 0
      vertex 1.25 0.334936 0
    endloop
  endfacet
  facet normal 0.831438 0.555617 0
    outer loop
      vertex 91.6651 54.75 18.6
      vertex 91.4834 55.0219 0
      vertex 91.4834 55.0219 18.6
    endloop
  endfacet
  facet normal 0.831438 0.555617 0
    outer loop
      vertex 91.4834 55.0219 0
      vertex 91.6651 54.75 18.6
      vertex 91.6651 54.75 0
    endloop
  endfacet
  facet normal 0.555575 -0.831466 0
    outer loop
      vertex 90.75 0.334936 0
      vertex 91.0219 0.516616 18.6
      vertex 90.75 0.334936 18.6
    endloop
  endfacet
  facet normal 0.555575 -0.831466 0
    outer loop
      vertex 91.0219 0.516616 18.6
      vertex 90.75 0.334936 0
      vertex 91.0219 0.516616 0
    endloop
  endfacet
  facet normal -0.997859 -0.0654 0
    outer loop
      vertex 0.0213871 2.17368 0
      vertex 0 2.5 18.6
      vertex 0 2.5 0
    endloop
  endfacet
  facet normal -0.997859 -0.0654 0
    outer loop
      vertex 0 2.5 18.6
      vertex 0.0213871 2.17368 0
      vertex 0.0213871 2.17368 18.6
    endloop
  endfacet
  facet normal 0.0654039 -0.997859 0
    outer loop
      vertex 89.5 0 0
      vertex 89.8263 0.0213871 18.6
      vertex 89.5 0 18.6
    endloop
  endfacet
  facet normal 0.0654039 -0.997859 0
    outer loop
      vertex 89.8263 0.0213871 18.6
      vertex 89.5 0 0
      vertex 89.8263 0.0213871 0
    endloop
  endfacet
  facet normal 0.831442 -0.555612 0
    outer loop
      vertex 91.4834 0.978096 18.6
      vertex 91.6651 1.25 0
      vertex 91.6651 1.25 18.6
    endloop
  endfacet
  facet normal 0.831442 -0.555612 0
    outer loop
      vertex 91.6651 1.25 0
      vertex 91.4834 0.978096 18.6
      vertex 91.4834 0.978096 0
    endloop
  endfacet
  facet normal -0.44229 -0.896872 0
    outer loop
      vertex 1.25 0.334936 0
      vertex 1.54329 0.190301 18.6
      vertex 1.25 0.334936 18.6
    endloop
  endfacet
  facet normal -0.44229 -0.896872 -0
    outer loop
      vertex 1.54329 0.190301 18.6
      vertex 1.25 0.334936 0
      vertex 1.54329 0.190301 0
    endloop
  endfacet
  facet normal 0.555617 0.831438 -0
    outer loop
      vertex 91.0219 55.4834 0
      vertex 90.75 55.6651 18.6
      vertex 91.0219 55.4834 18.6
    endloop
  endfacet
  facet normal 0.555617 0.831438 0
    outer loop
      vertex 90.75 55.6651 18.6
      vertex 91.0219 55.4834 0
      vertex 90.75 55.6651 0
    endloop
  endfacet
  facet normal -0.321441 -0.94693 0
    outer loop
      vertex 1.54329 0.190301 0
      vertex 1.85295 0.0851851 18.6
      vertex 1.54329 0.190301 18.6
    endloop
  endfacet
  facet normal -0.321441 -0.94693 -0
    outer loop
      vertex 1.85295 0.0851851 18.6
      vertex 1.54329 0.190301 0
      vertex 1.85295 0.0851851 0
    endloop
  endfacet
  facet normal -0.896872 -0.44229 0
    outer loop
      vertex 0.334936 1.25 0
      vertex 0.190301 1.54329 18.6
      vertex 0.190301 1.54329 0
    endloop
  endfacet
  facet normal -0.896872 -0.44229 0
    outer loop
      vertex 0.190301 1.54329 18.6
      vertex 0.334936 1.25 0
      vertex 0.334936 1.25 18.6
    endloop
  endfacet
  facet normal 0.442191 0.896921 -0
    outer loop
      vertex 90.75 55.6651 0
      vertex 90.4567 55.8097 18.6
      vertex 90.75 55.6651 18.6
    endloop
  endfacet
  facet normal 0.442191 0.896921 0
    outer loop
      vertex 90.4567 55.8097 18.6
      vertex 90.75 55.6651 0
      vertex 90.4567 55.8097 0
    endloop
  endfacet
  facet normal 0.751865 -0.659317 0
    outer loop
      vertex 91.2678 0.732232 18.6
      vertex 91.4834 0.978096 0
      vertex 91.4834 0.978096 18.6
    endloop
  endfacet
  facet normal 0.751865 -0.659317 0
    outer loop
      vertex 91.4834 0.978096 0
      vertex 91.2678 0.732232 18.6
      vertex 91.2678 0.732232 0
    endloop
  endfacet
  facet normal 0 0 -1
    outer loop
      vertex 89.5 0 0
      vertex 92 2.5 0
      vertex 91.9786 2.17368 0
    endloop
  endfacet
  facet normal -0 0 -1
    outer loop
      vertex 92 2.5 0
      vertex 81.55 2.4 0
      vertex 92 53.5 0
    endloop
  endfacet
  facet normal 0 0 -1
    outer loop
      vertex 89.5 0 0
      vertex 91.9786 2.17368 0
      vertex 91.9148 1.85295 0
    endloop
  endfacet
  facet normal 0 0 -1
    outer loop
      vertex 81.55 53.6 0
      vertex 92 53.5 0
      vertex 81.55 2.4 0
    endloop
  endfacet
  facet normal 0 0 -1
    outer loop
      vertex 89.5 0 0
      vertex 91.9148 1.85295 0
      vertex 91.8097 1.54329 0
    endloop
  endfacet
  facet normal 0 -0 -1
    outer loop
      vertex 89.5 56 0
      vertex 92 53.5 0
      vertex 81.55 53.6 0
    endloop
  endfacet
  facet normal 0 0 -1
    outer loop
      vertex 89.5 0 0
      vertex 91.8097 1.54329 0
      vertex 91.6651 1.25 0
    endloop
  endfacet
  facet normal 0 0 -1
    outer loop
      vertex 92 53.5 0
      vertex 89.5 56 0
      vertex 91.9786 53.8263 0
    endloop
  endfacet
  facet normal 0 0 -1
    outer loop
      vertex 89.5 0 0
      vertex 91.6651 1.25 0
      vertex 91.4834 0.978096 0
    endloop
  endfacet
  facet normal 0 0 -1
    outer loop
      vertex 91.9786 53.8263 0
      vertex 89.5 56 0
      vertex 91.9148 54.147 0
    endloop
  endfacet
  facet normal 0 0 -1
    outer loop
      vertex 89.5 0 0
      vertex 91.4834 0.978096 0
      vertex 91.2678 0.732232 0
    endloop
  endfacet
  facet normal 0 0 -1
    outer loop
      vertex 91.9148 54.147 0
      vertex 89.5 56 0
      vertex 91.8097 54.4567 0
    endloop
  endfacet
  facet normal 0 0 -1
    outer loop
      vertex 89.5 0 0
      vertex 91.2678 0.732232 0
      vertex 91.0219 0.516616 0
    endloop
  endfacet
  facet normal 0 0 -1
    outer loop
      vertex 91.8097 54.4567 0
      vertex 89.5 56 0
      vertex 91.6651 54.75 0
    endloop
  endfacet
  facet normal 0 0 -1
    outer loop
      vertex 89.5 0 0
      vertex 91.0219 0.516616 0
      vertex 90.75 0.334936 0
    endloop
  endfacet
  facet normal 0 0 -1
    outer loop
      vertex 91.6651 54.75 0
      vertex 89.5 56 0
      vertex 91.4834 55.0219 0
    endloop
  endfacet
  facet normal 0 0 -1
    outer loop
      vertex 89.5 0 0
      vertex 90.75 0.334936 0
      vertex 90.4567 0.190301 0
    endloop
  endfacet
  facet normal 0 0 -1
    outer loop
      vertex 91.4834 55.0219 0
      vertex 89.5 56 0
      vertex 91.2678 55.2678 0
    endloop
  endfacet
  facet normal 0 0 -1
    outer loop
      vertex 89.5 0 0
      vertex 90.4567 0.190301 0
      vertex 90.147 0.0851851 0
    endloop
  endfacet
  facet normal 0 0 -1
    outer loop
      vertex 91.2678 55.2678 0
      vertex 89.5 56 0
      vertex 91.0219 55.4834 0
    endloop
  endfacet
  facet normal 0 0 -1
    outer loop
      vertex 89.5 0 0
      vertex 90.147 0.0851851 0
      vertex 89.8263 0.0213871 0
    endloop
  endfacet
  facet normal 0 0 -1
    outer loop
      vertex 91.0219 55.4834 0
      vertex 89.5 56 0
      vertex 90.75 55.6651 0
    endloop
  endfacet
  facet normal 0 0 -1
    outer loop
      vertex 92 2.5 0
      vertex 89.5 0 0
      vertex 81.55 2.4 0
    endloop
  endfacet
  facet normal 0 0 -1
    outer loop
      vertex 90.75 55.6651 0
      vertex 89.5 56 0
      vertex 90.4567 55.8097 0
    endloop
  endfacet
  facet normal 0 0 -1
    outer loop
      vertex 90.4567 55.8097 0
      vertex 89.5 56 0
      vertex 90.147 55.9148 0
    endloop
  endfacet
  facet normal 0 0 -1
    outer loop
      vertex 89.5 0 0
      vertex 11.15 2.4 0
      vertex 81.55 2.4 0
    endloop
  endfacet
  facet normal 0 0 -1
    outer loop
      vertex 0 2.5 0
      vertex 11.15 2.4 0
      vertex 2.5 0 0
    endloop
  endfacet
  facet normal 0 0 -1
    outer loop
      vertex 2.5 0 0
      vertex 11.15 2.4 0
      vertex 89.5 0 0
    endloop
  endfacet
  facet normal 0 0 -1
    outer loop
      vertex 90.147 55.9148 0
      vertex 89.5 56 0
      vertex 89.8263 55.9786 0
    endloop
  endfacet
  facet normal 0 0 -1
    outer loop
      vertex 11.15 53.6 0
      vertex 89.5 56 0
      vertex 81.55 53.6 0
    endloop
  endfacet
  facet normal 0 0 -1
    outer loop
      vertex 11.15 53.6 0
      vertex 2.5 56 0
      vertex 89.5 56 0
    endloop
  endfacet
  facet normal 0 0 -1
    outer loop
      vertex 11.15 2.4 0
      vertex 0 2.5 0
      vertex 11.15 53.6 0
    endloop
  endfacet
  facet normal 0 0 -1
    outer loop
      vertex 0 2.5 0
      vertex 2.5 0 0
      vertex 2.17368 0.0213871 0
    endloop
  endfacet
  facet normal 0 0 -1
    outer loop
      vertex 0 53.5 0
      vertex 11.15 53.6 0
      vertex 0 2.5 0
    endloop
  endfacet
  facet normal 0 0 -1
    outer loop
      vertex 0 2.5 0
      vertex 2.17368 0.0213871 0
      vertex 1.85295 0.0851851 0
    endloop
  endfacet
  facet normal -0 0 -1
    outer loop
      vertex 11.15 53.6 0
      vertex 0 53.5 0
      vertex 2.5 56 0
    endloop
  endfacet
  facet normal 0 0 -1
    outer loop
      vertex 0 2.5 0
      vertex 1.85295 0.0851851 0
      vertex 1.54329 0.190301 0
    endloop
  endfacet
  facet normal 0 0 -1
    outer loop
      vertex 2.5 56 0
      vertex 0 53.5 0
      vertex 2.17368 55.9786 0
    endloop
  endfacet
  facet normal 0 0 -1
    outer loop
      vertex 0 2.5 0
      vertex 1.54329 0.190301 0
      vertex 1.25 0.334936 0
    endloop
  endfacet
  facet normal 0 0 -1
    outer loop
      vertex 2.17368 55.9786 0
      vertex 0 53.5 0
      vertex 1.85295 55.9148 0
    endloop
  endfacet
  facet normal 0 0 -1
    outer loop
      vertex 0 2.5 0
      vertex 1.25 0.334936 0
      vertex 0.978096 0.516616 0
    endloop
  endfacet
  facet normal 0 0 -1
    outer loop
      vertex 1.85295 55.9148 0
      vertex 0 53.5 0
      vertex 1.54329 55.8097 0
    endloop
  endfacet
  facet normal 0 0 -1
    outer loop
      vertex 0 2.5 0
      vertex 0.978096 0.516616 0
      vertex 0.732232 0.732232 0
    endloop
  endfacet
  facet normal 0 0 -1
    outer loop
      vertex 1.54329 55.8097 0
      vertex 0 53.5 0
      vertex 1.25 55.6651 0
    endloop
  endfacet
  facet normal 0 0 -1
    outer loop
      vertex 0 2.5 0
      vertex 0.732232 0.732232 0
      vertex 0.516616 0.978096 0
    endloop
  endfacet
  facet normal 0 0 -1
    outer loop
      vertex 1.25 55.6651 0
      vertex 0 53.5 0
      vertex 0.978096 55.4834 0
    endloop
  endfacet
  facet normal 0 0 -1
    outer loop
      vertex 0 2.5 0
      vertex 0.516616 0.978096 0
      vertex 0.334936 1.25 0
    endloop
  endfacet
  facet normal 0 0 -1
    outer loop
      vertex 0.978096 55.4834 0
      vertex 0 53.5 0
      vertex 0.732232 55.2678 0
    endloop
  endfacet
  facet normal 0 0 -1
    outer loop
      vertex 0 2.5 0
      vertex 0.334936 1.25 0
      vertex 0.190301 1.54329 0
    endloop
  endfacet
  facet normal 0 0 -1
    outer loop
      vertex 0.732232 55.2678 0
      vertex 0 53.5 0
      vertex 0.516616 55.0219 0
    endloop
  endfacet
  facet normal 0 0 -1
    outer loop
      vertex 0 2.5 0
      vertex 0.190301 1.54329 0
      vertex 0.0851851 1.85295 0
    endloop
  endfacet
  facet normal 0 0 -1
    outer loop
      vertex 0.516616 55.0219 0
      vertex 0 53.5 0
      vertex 0.334936 54.75 0
    endloop
  endfacet
  facet normal 0 0 -1
    outer loop
      vertex 0 2.5 0
      vertex 0.0851851 1.85295 0
      vertex 0.0213871 2.17368 0
    endloop
  endfacet
  facet normal 0 0 -1
    outer loop
      vertex 0.334936 54.75 0
      vertex 0 53.5 0
      vertex 0.190301 54.4567 0
    endloop
  endfacet
  facet normal 0 0 -1
    outer loop
      vertex 0.190301 54.4567 0
      vertex 0 53.5 0
      vertex 0.0851851 54.147 0
    endloop
  endfacet
  facet normal 0 0 -1
    outer loop
      vertex 0.0851851 54.147 0
      vertex 0 53.5 0
      vertex 0.0213871 53.8263 0
    endloop
  endfacet
  facet normal -0.195099 0.980784 0
    outer loop
      vertex 2.17368 55.9786 0
      vertex 1.85295 55.9148 18.6
      vertex 2.17368 55.9786 18.6
    endloop
  endfacet
  facet normal -0.195099 0.980784 0
    outer loop
      vertex 1.85295 55.9148 18.6
      vertex 2.17368 55.9786 0
      vertex 1.85295 55.9148 0
    endloop
  endfacet
  facet normal 0.195116 0.98078 -0
    outer loop
      vertex 90.147 55.9148 0
      vertex 89.8263 55.9786 18.6
      vertex 90.147 55.9148 18.6
    endloop
  endfacet
  facet normal 0.195116 0.98078 0
    outer loop
      vertex 89.8263 55.9786 18.6
      vertex 90.147 55.9148 0
      vertex 89.8263 55.9786 0
    endloop
  endfacet
  facet normal 0.0654432 0.997856 -0
    outer loop
      vertex 89.8263 55.9786 0
      vertex 89.5 56 18.6
      vertex 89.8263 55.9786 18.6
    endloop
  endfacet
  facet normal 0.0654432 0.997856 0
    outer loop
      vertex 89.5 56 18.6
      vertex 89.8263 55.9786 0
      vertex 89.5 56 0
    endloop
  endfacet
  facet normal -0 0 1
    outer loop
      vertex 89.6 53.6 18.6
      vertex 92 53.5 18.6
      vertex 91.9786 53.8263 18.6
    endloop
  endfacet
  facet normal 0 0 1
    outer loop
      vertex 92 53.5 18.6
      vertex 89.6 53.6 18.6
      vertex 92 2.5 18.6
    endloop
  endfacet
  facet normal 0 0 1
    outer loop
      vertex 89.6 53.6 18.6
      vertex 91.9786 53.8263 18.6
      vertex 91.9148 54.147 18.6
    endloop
  endfacet
  facet normal 0 0 1
    outer loop
      vertex 89.6 2.4 18.6
      vertex 92 2.5 18.6
      vertex 89.6 53.6 18.6
    endloop
  endfacet
  facet normal 0 0 1
    outer loop
      vertex 89.6 53.6 18.6
      vertex 91.9148 54.147 18.6
      vertex 91.8097 54.4567 18.6
    endloop
  endfacet
  facet normal 0 0 1
    outer loop
      vertex 92 2.5 18.6
      vertex 89.6 2.4 18.6
      vertex 91.9786 2.17368 18.6
    endloop
  endfacet
  facet normal 0 0 1
    outer loop
      vertex 89.6 53.6 18.6
      vertex 91.8097 54.4567 18.6
      vertex 91.6651 54.75 18.6
    endloop
  endfacet
  facet normal 0 0 1
    outer loop
      vertex 91.9786 2.17368 18.6
      vertex 89.6 2.4 18.6
      vertex 91.9148 1.85295 18.6
    endloop
  endfacet
  facet normal 0 0 1
    outer loop
      vertex 89.6 53.6 18.6
      vertex 91.6651 54.75 18.6
      vertex 91.4834 55.0219 18.6
    endloop
  endfacet
  facet normal 0 0 1
    outer loop
      vertex 91.9148 1.85295 18.6
      vertex 89.6 2.4 18.6
      vertex 91.8097 1.54329 18.6
    endloop
  endfacet
  facet normal 0 0 1
    outer loop
      vertex 89.6 53.6 18.6
      vertex 91.4834 55.0219 18.6
      vertex 91.2678 55.2678 18.6
    endloop
  endfacet
  facet normal 0 0 1
    outer loop
      vertex 91.8097 1.54329 18.6
      vertex 89.6 2.4 18.6
      vertex 91.6651 1.25 18.6
    endloop
  endfacet
  facet normal 0 0 1
    outer loop
      vertex 89.6 53.6 18.6
      vertex 91.2678 55.2678 18.6
      vertex 91.0219 55.4834 18.6
    endloop
  endfacet
  facet normal 0 0 1
    outer loop
      vertex 91.6651 1.25 18.6
      vertex 89.6 2.4 18.6
      vertex 91.4834 0.978096 18.6
    endloop
  endfacet
  facet normal 0 0 1
    outer loop
      vertex 89.6 53.6 18.6
      vertex 91.0219 55.4834 18.6
      vertex 90.75 55.6651 18.6
    endloop
  endfacet
  facet normal 0 0 1
    outer loop
      vertex 91.4834 0.978096 18.6
      vertex 89.6 2.4 18.6
      vertex 91.2678 0.732232 18.6
    endloop
  endfacet
  facet normal 0 0 1
    outer loop
      vertex 89.6 53.6 18.6
      vertex 90.75 55.6651 18.6
      vertex 90.4567 55.8097 18.6
    endloop
  endfacet
  facet normal 0 0 1
    outer loop
      vertex 91.2678 0.732232 18.6
      vertex 89.6 2.4 18.6
      vertex 91.0219 0.516616 18.6
    endloop
  endfacet
  facet normal 0 0 1
    outer loop
      vertex 89.6 53.6 18.6
      vertex 90.4567 55.8097 18.6
      vertex 90.147 55.9148 18.6
    endloop
  endfacet
  facet normal 0 0 1
    outer loop
      vertex 91.0219 0.516616 18.6
      vertex 89.6 2.4 18.6
      vertex 90.75 0.334936 18.6
    endloop
  endfacet
  facet normal 0 0 1
    outer loop
      vertex 89.6 53.6 18.6
      vertex 90.147 55.9148 18.6
      vertex 89.8263 55.9786 18.6
    endloop
  endfacet
  facet normal 0 0 1
    outer loop
      vertex 90.75 0.334936 18.6
      vertex 89.6 2.4 18.6
      vertex 90.4567 0.190301 18.6
    endloop
  endfacet
  facet normal 0 0 1
    outer loop
      vertex 90.4567 0.190301 18.6
      vertex 89.6 2.4 18.6
      vertex 90.147 0.0851851 18.6
    endloop
  endfacet
  facet normal 0 0 1
    outer loop
      vertex 89.5 56 18.6
      vertex 89.6 53.6 18.6
      vertex 89.8263 55.9786 18.6
    endloop
  endfacet
  facet normal -0 0 1
    outer loop
      vertex 2.5 56 18.6
      vertex 89.6 53.6 18.6
      vertex 89.5 56 18.6
    endloop
  endfacet
  facet normal 0 0 1
    outer loop
      vertex 2.5 56 18.6
      vertex 2.4 53.6 18.6
      vertex 89.6 53.6 18.6
    endloop
  endfacet
  facet normal -0 0 1
    outer loop
      vertex 1.85295 55.9148 18.6
      vertex 2.4 53.6 18.6
      vertex 2.17368 55.9786 18.6
    endloop
  endfacet
  facet normal -0 0 1
    outer loop
      vertex 2.17368 55.9786 18.6
      vertex 2.4 53.6 18.6
      vertex 2.5 56 18.6
    endloop
  endfacet
  facet normal 0 0 1
    outer loop
      vertex 90.147 0.0851851 18.6
      vertex 89.6 2.4 18.6
      vertex 89.8263 0.0213871 18.6
    endloop
  endfacet
  facet normal 0 0 1
    outer loop
      vertex 89.6 2.4 18.6
      vertex 89.5 0 18.6
      vertex 89.8263 0.0213871 18.6
    endloop
  endfacet
  facet normal 0 0 1
    outer loop
      vertex 89.6 2.4 18.6
      vertex 2.5 0 18.6
      vertex 89.5 0 18.6
    endloop
  endfacet
  facet normal -0 0 1
    outer loop
      vertex 2.4 2.4 18.6
      vertex 2.5 0 18.6
      vertex 89.6 2.4 18.6
    endloop
  endfacet
  facet normal 0 0 1
    outer loop
      vertex 2.4 2.4 18.6
      vertex 2.17368 0.0213871 18.6
      vertex 2.5 0 18.6
    endloop
  endfacet
  facet normal 0 0 1
    outer loop
      vertex 2.4 53.6 18.6
      vertex 0 53.5 18.6
      vertex 2.4 2.4 18.6
    endloop
  endfacet
  facet normal -0 0 1
    outer loop
      vertex 1.54329 55.8097 18.6
      vertex 2.4 53.6 18.6
      vertex 1.85295 55.9148 18.6
    endloop
  endfacet
  facet normal -0 0 1
    outer loop
      vertex 0 2.5 18.6
      vertex 2.4 2.4 18.6
      vertex 0 53.5 18.6
    endloop
  endfacet
  facet normal -0 0 1
    outer loop
      vertex 1.25 55.6651 18.6
      vertex 2.4 53.6 18.6
      vertex 1.54329 55.8097 18.6
    endloop
  endfacet
  facet normal 0 -0 1
    outer loop
      vertex 0.0213871 2.17368 18.6
      vertex 2.4 2.4 18.6
      vertex 0 2.5 18.6
    endloop
  endfacet
  facet normal -0 0 1
    outer loop
      vertex 0.978096 55.4834 18.6
      vertex 2.4 53.6 18.6
      vertex 1.25 55.6651 18.6
    endloop
  endfacet
  facet normal 0 0 1
    outer loop
      vertex 2.4 2.4 18.6
      vertex 1.85295 0.0851851 18.6
      vertex 2.17368 0.0213871 18.6
    endloop
  endfacet
  facet normal -0 0 1
    outer loop
      vertex 0.732232 55.2678 18.6
      vertex 2.4 53.6 18.6
      vertex 0.978096 55.4834 18.6
    endloop
  endfacet
  facet normal 0 0 1
    outer loop
      vertex 2.4 2.4 18.6
      vertex 1.54329 0.190301 18.6
      vertex 1.85295 0.0851851 18.6
    endloop
  endfacet
  facet normal -0 0 1
    outer loop
      vertex 0.516616 55.0219 18.6
      vertex 2.4 53.6 18.6
      vertex 0.732232 55.2678 18.6
    endloop
  endfacet
  facet normal 0 0 1
    outer loop
      vertex 2.4 2.4 18.6
      vertex 1.25 0.334936 18.6
      vertex 1.54329 0.190301 18.6
    endloop
  endfacet
  facet normal -0 0 1
    outer loop
      vertex 0.334936 54.75 18.6
      vertex 2.4 53.6 18.6
      vertex 0.516616 55.0219 18.6
    endloop
  endfacet
  facet normal 0 0 1
    outer loop
      vertex 2.4 2.4 18.6
      vertex 0.978096 0.516616 18.6
      vertex 1.25 0.334936 18.6
    endloop
  endfacet
  facet normal -0 0 1
    outer loop
      vertex 0.190301 54.4567 18.6
      vertex 2.4 53.6 18.6
      vertex 0.334936 54.75 18.6
    endloop
  endfacet
  facet normal 0 0 1
    outer loop
      vertex 2.4 2.4 18.6
      vertex 0.732232 0.732232 18.6
      vertex 0.978096 0.516616 18.6
    endloop
  endfacet
  facet normal -0 0 1
    outer loop
      vertex 0.0851851 54.147 18.6
      vertex 2.4 53.6 18.6
      vertex 0.190301 54.4567 18.6
    endloop
  endfacet
  facet normal 0 0 1
    outer loop
      vertex 2.4 2.4 18.6
      vertex 0.516616 0.978096 18.6
      vertex 0.732232 0.732232 18.6
    endloop
  endfacet
  facet normal -0 0 1
    outer loop
      vertex 0.0213871 53.8263 18.6
      vertex 2.4 53.6 18.6
      vertex 0.0851851 54.147 18.6
    endloop
  endfacet
  facet normal 0 0 1
    outer loop
      vertex 2.4 2.4 18.6
      vertex 0.334936 1.25 18.6
      vertex 0.516616 0.978096 18.6
    endloop
  endfacet
  facet normal 0 0 1
    outer loop
      vertex 2.4 53.6 18.6
      vertex 0.0213871 53.8263 18.6
      vertex 0 53.5 18.6
    endloop
  endfacet
  facet normal 0 0 1
    outer loop
      vertex 2.4 2.4 18.6
      vertex 0.190301 1.54329 18.6
      vertex 0.334936 1.25 18.6
    endloop
  endfacet
  facet normal 0 0 1
    outer loop
      vertex 2.4 2.4 18.6
      vertex 0.0851851 1.85295 18.6
      vertex 0.190301 1.54329 18.6
    endloop
  endfacet
  facet normal 0 0 1
    outer loop
      vertex 2.4 2.4 18.6
      vertex 0.0213871 2.17368 18.6
      vertex 0.0851851 1.85295 18.6
    endloop
  endfacet
  facet normal 0.98078 0.195116 0
    outer loop
      vertex 91.9786 53.8263 18.6
      vertex 91.9148 54.147 0
      vertex 91.9148 54.147 18.6
    endloop
  endfacet
  facet normal 0.98078 0.195116 0
    outer loop
      vertex 91.9148 54.147 0
      vertex 91.9786 53.8263 18.6
      vertex 91.9786 53.8263 0
    endloop
  endfacet
  facet normal -0.751841 -0.659344 0
    outer loop
      vertex 0.732232 0.732232 0
      vertex 0.516616 0.978096 18.6
      vertex 0.516616 0.978096 0
    endloop
  endfacet
  facet normal -0.751841 -0.659344 0
    outer loop
      vertex 0.516616 0.978096 18.6
      vertex 0.732232 0.732232 0
      vertex 0.732232 0.732232 18.6
    endloop
  endfacet
  facet normal 0.321404 -0.946942 0
    outer loop
      vertex 90.147 0.0851851 0
      vertex 90.4567 0.190301 18.6
      vertex 90.147 0.0851851 18.6
    endloop
  endfacet
  facet normal 0.321404 -0.946942 0
    outer loop
      vertex 90.4567 0.190301 18.6
      vertex 90.147 0.0851851 0
      vertex 90.4567 0.190301 0
    endloop
  endfacet
  facet normal -1 0 0
    outer loop
      vertex 89.6 32.65 8.59
      vertex 89.6 53.6 2
      vertex 89.6 32.65 3.59
    endloop
  endfacet
  facet normal -1 0 0
    outer loop
      vertex 89.6 53.6 2
      vertex 89.6 22.15 3.59
      vertex 89.6 32.65 3.59
    endloop
  endfacet
  facet normal -1 -0 0
    outer loop
      vertex 89.6 22.15 3.59
      vertex 89.6 2.4 2
      vertex 89.6 22.15 8.59
    endloop
  endfacet
  facet normal -1 0 0
    outer loop
      vertex 89.6 2.4 2
      vertex 89.6 22.15 3.59
      vertex 89.6 53.6 2
    endloop
  endfacet
  facet normal -1 0 0
    outer loop
      vertex 89.6 53.6 2
      vertex 89.6 32.65 8.59
      vertex 89.6 53.6 18.6
    endloop
  endfacet
  facet normal -1 0 0
    outer loop
      vertex 89.6 2.4 18.6
      vertex 89.6 32.65 8.59
      vertex 89.6 22.15 8.59
    endloop
  endfacet
  facet normal -1 0 0
    outer loop
      vertex 89.6 32.65 8.59
      vertex 89.6 2.4 18.6
      vertex 89.6 53.6 18.6
    endloop
  endfacet
  facet normal -1 0 0
    outer loop
      vertex 89.6 2.4 18.6
      vertex 89.6 22.15 8.59
      vertex 89.6 2.4 2
    endloop
  endfacet
  facet normal -0 0 1
    outer loop
      vertex 81.55 53.6 2
      vertex 89.6 2.4 2
      vertex 89.6 53.6 2
    endloop
  endfacet
  facet normal 0 0 1
    outer loop
      vertex 89.6 2.4 2
      vertex 81.55 53.6 2
      vertex 81.55 2.4 2
    endloop
  endfacet
  facet normal -0 0 1
    outer loop
      vertex 2.4 53.6 2
      vertex 11.15 2.4 2
      vertex 11.15 53.6 2
    endloop
  endfacet
  facet normal 0 0 1
    outer loop
      vertex 11.15 2.4 2
      vertex 2.4 53.6 2
      vertex 2.4 2.4 2
    endloop
  endfacet
  facet normal 1 -0 0
    outer loop
      vertex 2.4 31.1726 8.76768
      vertex 2.4 53.6 2
      vertex 2.4 53.6 18.6
    endloop
  endfacet
  facet normal 1 0 0
    outer loop
      vertex 2.4 53.6 2
      vertex 2.4 31.1726 8.76768
      vertex 2.4 31.2 8.35
    endloop
  endfacet
  facet normal 1 0 0
    outer loop
      vertex 2.4 53.6 18.6
      vertex 2.4 31.091 9.17822
      vertex 2.4 31.1726 8.76768
    endloop
  endfacet
  facet normal 1 0 0
    outer loop
      vertex 2.4 53.6 18.6
      vertex 2.4 30.9564 9.57459
      vertex 2.4 31.091 9.17822
    endloop
  endfacet
  facet normal 1 0 0
    outer loop
      vertex 2.4 53.6 18.6
      vertex 2.4 30.7713 9.95
      vertex 2.4 30.9564 9.57459
    endloop
  endfacet
  facet normal 1 0 0
    outer loop
      vertex 2.4 53.6 18.6
      vertex 2.4 30.5387 10.298
      vertex 2.4 30.7713 9.95
    endloop
  endfacet
  facet normal 1 0 0
    outer loop
      vertex 2.4 53.6 18.6
      vertex 2.4 30.2627 10.6127
      vertex 2.4 30.5387 10.298
    endloop
  endfacet
  facet normal 1 0 0
    outer loop
      vertex 2.4 53.6 18.6
      vertex 2.4 29.948 10.8887
      vertex 2.4 30.2627 10.6127
    endloop
  endfacet
  facet normal 1 0 0
    outer loop
      vertex 2.4 53.6 18.6
      vertex 2.4 29.6 11.1213
      vertex 2.4 29.948 10.8887
    endloop
  endfacet
  facet normal 1 0 0
    outer loop
      vertex 2.4 53.6 18.6
      vertex 2.4 29.2246 11.3064
      vertex 2.4 29.6 11.1213
    endloop
  endfacet
  facet normal 1 0 0
    outer loop
      vertex 2.4 53.6 18.6
      vertex 2.4 28.8282 11.441
      vertex 2.4 29.2246 11.3064
    endloop
  endfacet
  facet normal 1 0 0
    outer loop
      vertex 2.4 53.6 18.6
      vertex 2.4 28.4177 11.5226
      vertex 2.4 28.8282 11.441
    endloop
  endfacet
  facet normal 1 0 0
    outer loop
      vertex 2.4 53.6 18.6
      vertex 2.4 28 11.55
      vertex 2.4 28.4177 11.5226
    endloop
  endfacet
  facet normal 1 -0 0
    outer loop
      vertex 2.4 2.4 18.6
      vertex 2.4 28 11.55
      vertex 2.4 53.6 18.6
    endloop
  endfacet
  facet normal 1 0 0
    outer loop
      vertex 2.4 28 11.55
      vertex 2.4 2.4 18.6
      vertex 2.4 27.5823 11.5226
    endloop
  endfacet
  facet normal 1 0 0
    outer loop
      vertex 2.4 2.4 2
      vertex 2.4 24.8274 8.76768
      vertex 2.4 2.4 18.6
    endloop
  endfacet
  facet normal 1 0 0
    outer loop
      vertex 2.4 24.909 9.17822
      vertex 2.4 2.4 18.6
      vertex 2.4 24.8274 8.76768
    endloop
  endfacet
  facet normal 1 0 0
    outer loop
      vertex 2.4 25.0436 9.57459
      vertex 2.4 2.4 18.6
      vertex 2.4 24.909 9.17822
    endloop
  endfacet
  facet normal 1 0 0
    outer loop
      vertex 2.4 25.2287 9.95
      vertex 2.4 2.4 18.6
      vertex 2.4 25.0436 9.57459
    endloop
  endfacet
  facet normal 1 0 0
    outer loop
      vertex 2.4 25.4613 10.298
      vertex 2.4 2.4 18.6
      vertex 2.4 25.2287 9.95
    endloop
  endfacet
  facet normal 1 0 0
    outer loop
      vertex 2.4 25.7373 10.6127
      vertex 2.4 2.4 18.6
      vertex 2.4 25.4613 10.298
    endloop
  endfacet
  facet normal 1 0 0
    outer loop
      vertex 2.4 26.052 10.8887
      vertex 2.4 2.4 18.6
      vertex 2.4 25.7373 10.6127
    endloop
  endfacet
  facet normal 1 0 0
    outer loop
      vertex 2.4 26.4 11.1213
      vertex 2.4 2.4 18.6
      vertex 2.4 26.052 10.8887
    endloop
  endfacet
  facet normal 1 0 0
    outer loop
      vertex 2.4 26.7754 11.3064
      vertex 2.4 2.4 18.6
      vertex 2.4 26.4 11.1213
    endloop
  endfacet
  facet normal 1 0 0
    outer loop
      vertex 2.4 27.1718 11.441
      vertex 2.4 2.4 18.6
      vertex 2.4 26.7754 11.3064
    endloop
  endfacet
  facet normal 1 0 0
    outer loop
      vertex 2.4 27.5823 11.5226
      vertex 2.4 2.4 18.6
      vertex 2.4 27.1718 11.441
    endloop
  endfacet
  facet normal 1 -0 0
    outer loop
      vertex 2.4 31.1726 7.93232
      vertex 2.4 53.6 2
      vertex 2.4 31.2 8.35
    endloop
  endfacet
  facet normal 1 -0 0
    outer loop
      vertex 2.4 31.091 7.52178
      vertex 2.4 53.6 2
      vertex 2.4 31.1726 7.93232
    endloop
  endfacet
  facet normal 1 -0 0
    outer loop
      vertex 2.4 30.9564 7.12541
      vertex 2.4 53.6 2
      vertex 2.4 31.091 7.52178
    endloop
  endfacet
  facet normal 1 -0 0
    outer loop
      vertex 2.4 30.7713 6.75
      vertex 2.4 53.6 2
      vertex 2.4 30.9564 7.12541
    endloop
  endfacet
  facet normal 1 -0 0
    outer loop
      vertex 2.4 30.5387 6.40196
      vertex 2.4 53.6 2
      vertex 2.4 30.7713 6.75
    endloop
  endfacet
  facet normal 1 -0 0
    outer loop
      vertex 2.4 30.2627 6.08726
      vertex 2.4 53.6 2
      vertex 2.4 30.5387 6.40196
    endloop
  endfacet
  facet normal 1 -0 0
    outer loop
      vertex 2.4 29.948 5.81127
      vertex 2.4 53.6 2
      vertex 2.4 30.2627 6.08726
    endloop
  endfacet
  facet normal 1 -0 0
    outer loop
      vertex 2.4 29.6 5.57872
      vertex 2.4 53.6 2
      vertex 2.4 29.948 5.81127
    endloop
  endfacet
  facet normal 1 -0 0
    outer loop
      vertex 2.4 29.2246 5.39359
      vertex 2.4 53.6 2
      vertex 2.4 29.6 5.57872
    endloop
  endfacet
  facet normal 1 -0 0
    outer loop
      vertex 2.4 28.8282 5.25904
      vertex 2.4 53.6 2
      vertex 2.4 29.2246 5.39359
    endloop
  endfacet
  facet normal 1 -0 0
    outer loop
      vertex 2.4 28.4177 5.17738
      vertex 2.4 53.6 2
      vertex 2.4 28.8282 5.25904
    endloop
  endfacet
  facet normal 1 -0 0
    outer loop
      vertex 2.4 28 5.15
      vertex 2.4 53.6 2
      vertex 2.4 28.4177 5.17738
    endloop
  endfacet
  facet normal 1 0 0
    outer loop
      vertex 2.4 2.4 2
      vertex 2.4 28 5.15
      vertex 2.4 27.5823 5.17738
    endloop
  endfacet
  facet normal 1 0 0
    outer loop
      vertex 2.4 24.8274 8.76768
      vertex 2.4 2.4 2
      vertex 2.4 24.8 8.35
    endloop
  endfacet
  facet normal 1 0 0
    outer loop
      vertex 2.4 24.8 8.35
      vertex 2.4 2.4 2
      vertex 2.4 24.8274 7.93232
    endloop
  endfacet
  facet normal 1 0 0
    outer loop
      vertex 2.4 24.8274 7.93232
      vertex 2.4 2.4 2
      vertex 2.4 24.909 7.52178
    endloop
  endfacet
  facet normal 1 0 0
    outer loop
      vertex 2.4 24.909 7.52178
      vertex 2.4 2.4 2
      vertex 2.4 25.0436 7.12541
    endloop
  endfacet
  facet normal 1 0 0
    outer loop
      vertex 2.4 25.0436 7.12541
      vertex 2.4 2.4 2
      vertex 2.4 25.2287 6.75
    endloop
  endfacet
  facet normal 1 0 0
    outer loop
      vertex 2.4 25.2287 6.75
      vertex 2.4 2.4 2
      vertex 2.4 25.4613 6.40196
    endloop
  endfacet
  facet normal 1 0 0
    outer loop
      vertex 2.4 25.4613 6.40196
      vertex 2.4 2.4 2
      vertex 2.4 25.7373 6.08726
    endloop
  endfacet
  facet normal 1 0 0
    outer loop
      vertex 2.4 25.7373 6.08726
      vertex 2.4 2.4 2
      vertex 2.4 26.052 5.81127
    endloop
  endfacet
  facet normal 1 0 0
    outer loop
      vertex 2.4 28 5.15
      vertex 2.4 2.4 2
      vertex 2.4 53.6 2
    endloop
  endfacet
  facet normal 1 0 0
    outer loop
      vertex 2.4 27.1718 5.25904
      vertex 2.4 2.4 2
      vertex 2.4 27.5823 5.17738
    endloop
  endfacet
  facet normal 1 0 0
    outer loop
      vertex 2.4 26.7754 5.39359
      vertex 2.4 2.4 2
      vertex 2.4 27.1718 5.25904
    endloop
  endfacet
  facet normal 1 0 0
    outer loop
      vertex 2.4 26.4 5.57872
      vertex 2.4 2.4 2
      vertex 2.4 26.7754 5.39359
    endloop
  endfacet
  facet normal 1 0 0
    outer loop
      vertex 2.4 26.052 5.81127
      vertex 2.4 2.4 2
      vertex 2.4 26.4 5.57872
    endloop
  endfacet
  facet normal 0 -1 0
    outer loop
      vertex 81.55 53.6 0
      vertex 65 53.6 16
      vertex 11.15 53.6 0
    endloop
  endfacet
  facet normal 0 -1 0
    outer loop
      vertex 65 53.6 16
      vertex 81.55 53.6 0
      vertex 81.55 53.6 2
    endloop
  endfacet
  facet normal 0 -1 0
    outer loop
      vertex 27 53.6 16
      vertex 65 53.6 17.6
      vertex 27 53.6 17.6
    endloop
  endfacet
  facet normal 0 -1 -0
    outer loop
      vertex 65 53.6 17.6
      vertex 27 53.6 16
      vertex 65 53.6 16
    endloop
  endfacet
  facet normal 0 -1 0
    outer loop
      vertex 27 53.6 17.6
      vertex 2.4 53.6 18.6
      vertex 19 53.6 17.6
    endloop
  endfacet
  facet normal 0 -1 0
    outer loop
      vertex 2.4 53.6 18.6
      vertex 19 53.6 16
      vertex 19 53.6 17.6
    endloop
  endfacet
  facet normal 0 -1 0
    outer loop
      vertex 11.15 53.6 2
      vertex 27 53.6 16
      vertex 19 53.6 16
    endloop
  endfacet
  facet normal 0 -1 0
    outer loop
      vertex 11.15 53.6 0
      vertex 27 53.6 16
      vertex 11.15 53.6 2
    endloop
  endfacet
  facet normal 0 -1 0
    outer loop
      vertex 2.4 53.6 18.6
      vertex 11.15 53.6 2
      vertex 19 53.6 16
    endloop
  endfacet
  facet normal 0 -1 0
    outer loop
      vertex 11.15 53.6 2
      vertex 2.4 53.6 18.6
      vertex 2.4 53.6 2
    endloop
  endfacet
  facet normal 0 -1 0
    outer loop
      vertex 2.4 53.6 18.6
      vertex 27 53.6 17.6
      vertex 89.6 53.6 18.6
    endloop
  endfacet
  facet normal 0 -1 0
    outer loop
      vertex 65 53.6 17.6
      vertex 89.6 53.6 18.6
      vertex 27 53.6 17.6
    endloop
  endfacet
  facet normal 0 -1 0
    outer loop
      vertex 73 53.6 17.6
      vertex 89.6 53.6 18.6
      vertex 65 53.6 17.6
    endloop
  endfacet
  facet normal 0 -1 0
    outer loop
      vertex 73 53.6 16
      vertex 89.6 53.6 18.6
      vertex 73 53.6 17.6
    endloop
  endfacet
  facet normal 0 -1 -0
    outer loop
      vertex 27 53.6 16
      vertex 11.15 53.6 0
      vertex 65 53.6 16
    endloop
  endfacet
  facet normal 0 -1 0
    outer loop
      vertex 65 53.6 16
      vertex 81.55 53.6 2
      vertex 73 53.6 16
    endloop
  endfacet
  facet normal 0 -1 0
    outer loop
      vertex 73 53.6 16
      vertex 81.55 53.6 2
      vertex 89.6 53.6 18.6
    endloop
  endfacet
  facet normal 0 -1 -0
    outer loop
      vertex 89.6 53.6 18.6
      vertex 81.55 53.6 2
      vertex 89.6 53.6 2
    endloop
  endfacet
  facet normal 0 1 0
    outer loop
      vertex 65 2.4 16
      vertex 11.15 2.4 0
      vertex 27 2.4 16
    endloop
  endfacet
  facet normal 0 1 0
    outer loop
      vertex 27 2.4 16
      vertex 11.15 2.4 0
      vertex 11.15 2.4 2
    endloop
  endfacet
  facet normal 0 1 -0
    outer loop
      vertex 65 2.4 16
      vertex 27 2.4 17.6
      vertex 65 2.4 17.6
    endloop
  endfacet
  facet normal 0 1 0
    outer loop
      vertex 27 2.4 17.6
      vertex 65 2.4 16
      vertex 27 2.4 16
    endloop
  endfacet
  facet normal 0 1 0
    outer loop
      vertex 65 2.4 17.6
      vertex 89.6 2.4 18.6
      vertex 73 2.4 17.6
    endloop
  endfacet
  facet normal 0 1 0
    outer loop
      vertex 89.6 2.4 18.6
      vertex 73 2.4 16
      vertex 73 2.4 17.6
    endloop
  endfacet
  facet normal 0 1 0
    outer loop
      vertex 81.55 2.4 2
      vertex 65 2.4 16
      vertex 73 2.4 16
    endloop
  endfacet
  facet normal 0 1 -0
    outer loop
      vertex 81.55 2.4 0
      vertex 65 2.4 16
      vertex 81.55 2.4 2
    endloop
  endfacet
  facet normal 0 1 0
    outer loop
      vertex 89.6 2.4 18.6
      vertex 81.55 2.4 2
      vertex 73 2.4 16
    endloop
  endfacet
  facet normal 0 1 0
    outer loop
      vertex 81.55 2.4 2
      vertex 89.6 2.4 18.6
      vertex 89.6 2.4 2
    endloop
  endfacet
  facet normal 0 1 0
    outer loop
      vertex 89.6 2.4 18.6
      vertex 65 2.4 17.6
      vertex 2.4 2.4 18.6
    endloop
  endfacet
  facet normal 0 1 -0
    outer loop
      vertex 27 2.4 17.6
      vertex 2.4 2.4 18.6
      vertex 65 2.4 17.6
    endloop
  endfacet
  facet normal 0 1 -0
    outer loop
      vertex 19 2.4 17.6
      vertex 2.4 2.4 18.6
      vertex 27 2.4 17.6
    endloop
  endfacet
  facet normal 0 1 -0
    outer loop
      vertex 19 2.4 16
      vertex 2.4 2.4 18.6
      vertex 19 2.4 17.6
    endloop
  endfacet
  facet normal 0 1 0
    outer loop
      vertex 11.15 2.4 0
      vertex 65 2.4 16
      vertex 81.55 2.4 0
    endloop
  endfacet
  facet normal 0 1 0
    outer loop
      vertex 27 2.4 16
      vertex 11.15 2.4 2
      vertex 19 2.4 16
    endloop
  endfacet
  facet normal 0 1 0
    outer loop
      vertex 19 2.4 16
      vertex 11.15 2.4 2
      vertex 2.4 2.4 18.6
    endloop
  endfacet
  facet normal 0 1 0
    outer loop
      vertex 2.4 2.4 18.6
      vertex 11.15 2.4 2
      vertex 2.4 2.4 2
    endloop
  endfacet
  facet normal -1 0 0
    outer loop
      vertex 81.55 2.4 0
      vertex 81.55 53.6 2
      vertex 81.55 53.6 0
    endloop
  endfacet
  facet normal -1 -0 0
    outer loop
      vertex 81.55 53.6 2
      vertex 81.55 2.4 0
      vertex 81.55 2.4 2
    endloop
  endfacet
  facet normal 1 -0 0
    outer loop
      vertex 11.15 2.4 2
      vertex 11.15 53.6 0
      vertex 11.15 53.6 2
    endloop
  endfacet
  facet normal 1 0 0
    outer loop
      vertex 11.15 53.6 0
      vertex 11.15 2.4 2
      vertex 11.15 2.4 0
    endloop
  endfacet
  facet normal 0 0 -1
    outer loop
      vertex 89.6 22.15 8.59
      vertex 92 32.65 8.59
      vertex 92 22.15 8.59
    endloop
  endfacet
  facet normal -0 0 -1
    outer loop
      vertex 92 32.65 8.59
      vertex 89.6 22.15 8.59
      vertex 89.6 32.65 8.59
    endloop
  endfacet
  facet normal -0 0 1
    outer loop
      vertex 89.6 32.65 3.59
      vertex 92 22.15 3.59
      vertex 92 32.65 3.59
    endloop
  endfacet
  facet normal 0 0 1
    outer loop
      vertex 92 22.15 3.59
      vertex 89.6 32.65 3.59
      vertex 89.6 22.15 3.59
    endloop
  endfacet
  facet normal 0 -1 0
    outer loop
      vertex 89.6 32.65 3.59
      vertex 92 32.65 8.59
      vertex 89.6 32.65 8.59
    endloop
  endfacet
  facet normal 0 -1 -0
    outer loop
      vertex 92 32.65 8.59
      vertex 89.6 32.65 3.59
      vertex 92 32.65 3.59
    endloop
  endfacet
  facet normal 0 1 -0
    outer loop
      vertex 92 22.15 3.59
      vertex 89.6 22.15 8.59
      vertex 92 22.15 8.59
    endloop
  endfacet
  facet normal 0 1 0
    outer loop
      vertex 89.6 22.15 8.59
      vertex 92 22.15 3.59
      vertex 89.6 22.15 3.59
    endloop
  endfacet
  facet normal 0 -0.896903 -0.442228
    outer loop
      vertex 0 30.9564 9.57459
      vertex 2.4 30.7713 9.95
      vertex 0 30.7713 9.95
    endloop
  endfacet
  facet normal 0 -0.896903 -0.442228
    outer loop
      vertex 2.4 30.7713 9.95
      vertex 0 30.9564 9.57459
      vertex 2.4 30.9564 9.57459
    endloop
  endfacet
  facet normal 0 -0.321419 0.946937
    outer loop
      vertex 0 29.2246 5.39359
      vertex 2.4 28.8282 5.25904
      vertex 2.4 29.2246 5.39359
    endloop
  endfacet
  facet normal 0 -0.321419 0.946937
    outer loop
      vertex 2.4 28.8282 5.25904
      vertex 0 29.2246 5.39359
      vertex 0 28.8282 5.25904
    endloop
  endfacet
  facet normal 0 -0.831388 -0.555692
    outer loop
      vertex 0 30.7713 9.95
      vertex 2.4 30.5387 10.298
      vertex 0 30.5387 10.298
    endloop
  endfacet
  facet normal 0 -0.831388 -0.555692
    outer loop
      vertex 2.4 30.5387 10.298
      vertex 0 30.7713 9.95
      vertex 2.4 30.7713 9.95
    endloop
  endfacet
  facet normal -0 0.0654091 0.997859
    outer loop
      vertex 0 28 5.15
      vertex 2.4 27.5823 5.17738
      vertex 2.4 28 5.15
    endloop
  endfacet
  facet normal 0 0.0654091 0.997859
    outer loop
      vertex 2.4 27.5823 5.17738
      vertex 0 28 5.15
      vertex 0 27.5823 5.17738
    endloop
  endfacet
  facet normal 0 0.946893 0.321548
    outer loop
      vertex 2.4 25.0436 7.12541
      vertex 0 24.909 7.52178
      vertex 2.4 24.909 7.52178
    endloop
  endfacet
  facet normal 0 0.946893 0.321548
    outer loop
      vertex 0 24.909 7.52178
      vertex 2.4 25.0436 7.12541
      vertex 0 25.0436 7.12541
    endloop
  endfacet
  facet normal 0 -0.442295 0.89687
    outer loop
      vertex 0 29.6 5.57872
      vertex 2.4 29.2246 5.39359
      vertex 2.4 29.6 5.57872
    endloop
  endfacet
  facet normal 0 -0.442295 0.89687
    outer loop
      vertex 2.4 29.2246 5.39359
      vertex 0 29.6 5.57872
      vertex 0 29.2246 5.39359
    endloop
  endfacet
  facet normal 0 -0.980813 -0.194949
    outer loop
      vertex 0 31.1726 8.76768
      vertex 2.4 31.091 9.17822
      vertex 0 31.091 9.17822
    endloop
  endfacet
  facet normal 0 -0.980813 -0.194949
    outer loop
      vertex 2.4 31.091 9.17822
      vertex 0 31.1726 8.76768
      vertex 2.4 31.1726 8.76768
    endloop
  endfacet
  facet normal 0 -0.0654091 0.997859
    outer loop
      vertex 0 28.4177 5.17738
      vertex 2.4 28 5.15
      vertex 2.4 28.4177 5.17738
    endloop
  endfacet
  facet normal 0 -0.0654091 0.997859
    outer loop
      vertex 2.4 28 5.15
      vertex 0 28.4177 5.17738
      vertex 0 28 5.15
    endloop
  endfacet
  facet normal 0 0.555692 -0.831388
    outer loop
      vertex 0 26.052 10.8887
      vertex 2.4 26.4 11.1213
      vertex 2.4 26.052 10.8887
    endloop
  endfacet
  facet normal 0 0.555692 -0.831388
    outer loop
      vertex 2.4 26.4 11.1213
      vertex 0 26.052 10.8887
      vertex 0 26.4 11.1213
    endloop
  endfacet
  facet normal 0 0.659367 -0.751821
    outer loop
      vertex 0 25.7373 10.6127
      vertex 2.4 26.052 10.8887
      vertex 2.4 25.7373 10.6127
    endloop
  endfacet
  facet normal 0 0.659367 -0.751821
    outer loop
      vertex 2.4 26.052 10.8887
      vertex 0 25.7373 10.6127
      vertex 0 26.052 10.8887
    endloop
  endfacet
  facet normal 0 0.997855 -0.0654598
    outer loop
      vertex 2.4 24.8 8.35
      vertex 0 24.8274 8.76768
      vertex 2.4 24.8274 8.76768
    endloop
  endfacet
  facet normal 0 0.997855 -0.0654598
    outer loop
      vertex 0 24.8274 8.76768
      vertex 2.4 24.8 8.35
      vertex 0 24.8 8.35
    endloop
  endfacet
  facet normal -0 0.321419 0.946937
    outer loop
      vertex 0 27.1718 5.25904
      vertex 2.4 26.7754 5.39359
      vertex 2.4 27.1718 5.25904
    endloop
  endfacet
  facet normal 0 0.321419 0.946937
    outer loop
      vertex 2.4 26.7754 5.39359
      vertex 0 27.1718 5.25904
      vertex 0 26.7754 5.39359
    endloop
  endfacet
  facet normal 0 0.751821 0.659367
    outer loop
      vertex 2.4 25.7373 6.08726
      vertex 0 25.4613 6.40196
      vertex 2.4 25.4613 6.40196
    endloop
  endfacet
  facet normal 0 0.751821 0.659367
    outer loop
      vertex 0 25.4613 6.40196
      vertex 2.4 25.7373 6.08726
      vertex 0 25.7373 6.08726
    endloop
  endfacet
  facet normal 0 -0.659367 -0.751821
    outer loop
      vertex 0 29.948 10.8887
      vertex 2.4 30.2627 10.6127
      vertex 2.4 29.948 10.8887
    endloop
  endfacet
  facet normal -0 -0.659367 -0.751821
    outer loop
      vertex 2.4 30.2627 10.6127
      vertex 0 29.948 10.8887
      vertex 0 30.2627 10.6127
    endloop
  endfacet
  facet normal 0 0.194967 -0.98081
    outer loop
      vertex 0 27.1718 11.441
      vertex 2.4 27.5823 11.5226
      vertex 2.4 27.1718 11.441
    endloop
  endfacet
  facet normal 0 0.194967 -0.98081
    outer loop
      vertex 2.4 27.5823 11.5226
      vertex 0 27.1718 11.441
      vertex 0 27.5823 11.5226
    endloop
  endfacet
  facet normal 0 0.442237 -0.896898
    outer loop
      vertex 0 26.4 11.1213
      vertex 2.4 26.7754 11.3064
      vertex 2.4 26.4 11.1213
    endloop
  endfacet
  facet normal 0 0.442237 -0.896898
    outer loop
      vertex 2.4 26.7754 11.3064
      vertex 0 26.4 11.1213
      vertex 0 26.7754 11.3064
    endloop
  endfacet
  facet normal -0 0.659353 0.751833
    outer loop
      vertex 0 26.052 5.81127
      vertex 2.4 25.7373 6.08726
      vertex 2.4 26.052 5.81127
    endloop
  endfacet
  facet normal 0 0.659353 0.751833
    outer loop
      vertex 2.4 25.7373 6.08726
      vertex 0 26.052 5.81127
      vertex 0 25.7373 6.08726
    endloop
  endfacet
  facet normal -0 0.442295 0.89687
    outer loop
      vertex 0 26.7754 5.39359
      vertex 2.4 26.4 5.57872
      vertex 2.4 26.7754 5.39359
    endloop
  endfacet
  facet normal 0 0.442295 0.89687
    outer loop
      vertex 2.4 26.4 5.57872
      vertex 0 26.7754 5.39359
      vertex 0 26.4 5.57872
    endloop
  endfacet
  facet normal 0 0.321526 -0.946901
    outer loop
      vertex 0 26.7754 11.3064
      vertex 2.4 27.1718 11.441
      vertex 2.4 26.7754 11.3064
    endloop
  endfacet
  facet normal 0 0.321526 -0.946901
    outer loop
      vertex 2.4 27.1718 11.441
      vertex 0 26.7754 11.3064
      vertex 0 27.1718 11.441
    endloop
  endfacet
  facet normal 0 0.980813 0.194949
    outer loop
      vertex 2.4 24.909 7.52178
      vertex 0 24.8274 7.93232
      vertex 2.4 24.8274 7.93232
    endloop
  endfacet
  facet normal 0 0.980813 0.194949
    outer loop
      vertex 0 24.8274 7.93232
      vertex 2.4 24.909 7.52178
      vertex 0 24.909 7.52178
    endloop
  endfacet
  facet normal 0 -0.831418 0.555648
    outer loop
      vertex 0 30.5387 6.40196
      vertex 2.4 30.7713 6.75
      vertex 0 30.7713 6.75
    endloop
  endfacet
  facet normal 0 -0.831418 0.555648
    outer loop
      vertex 2.4 30.7713 6.75
      vertex 0 30.5387 6.40196
      vertex 2.4 30.5387 6.40196
    endloop
  endfacet
  facet normal 0 -0.555692 -0.831388
    outer loop
      vertex 0 29.6 11.1213
      vertex 2.4 29.948 10.8887
      vertex 2.4 29.6 11.1213
    endloop
  endfacet
  facet normal -0 -0.555692 -0.831388
    outer loop
      vertex 2.4 29.948 10.8887
      vertex 0 29.6 11.1213
      vertex 0 29.948 10.8887
    endloop
  endfacet
  facet normal 0 -0.896903 0.442228
    outer loop
      vertex 0 30.7713 6.75
      vertex 2.4 30.9564 7.12541
      vertex 0 30.9564 7.12541
    endloop
  endfacet
  facet normal 0 -0.896903 0.442228
    outer loop
      vertex 2.4 30.9564 7.12541
      vertex 0 30.7713 6.75
      vertex 2.4 30.7713 6.75
    endloop
  endfacet
  facet normal 0 -0.0654566 -0.997855
    outer loop
      vertex 0 28 11.55
      vertex 2.4 28.4177 11.5226
      vertex 2.4 28 11.55
    endloop
  endfacet
  facet normal -0 -0.0654566 -0.997855
    outer loop
      vertex 2.4 28.4177 11.5226
      vertex 0 28 11.55
      vertex 0 28.4177 11.5226
    endloop
  endfacet
  facet normal 0 -0.659353 0.751833
    outer loop
      vertex 0 30.2627 6.08726
      vertex 2.4 29.948 5.81127
      vertex 2.4 30.2627 6.08726
    endloop
  endfacet
  facet normal 0 -0.659353 0.751833
    outer loop
      vertex 2.4 29.948 5.81127
      vertex 0 30.2627 6.08726
      vertex 0 29.948 5.81127
    endloop
  endfacet
  facet normal 0 -0.751821 0.659367
    outer loop
      vertex 0 30.2627 6.08726
      vertex 2.4 30.5387 6.40196
      vertex 0 30.5387 6.40196
    endloop
  endfacet
  facet normal 0 -0.751821 0.659367
    outer loop
      vertex 2.4 30.5387 6.40196
      vertex 0 30.2627 6.08726
      vertex 2.4 30.2627 6.08726
    endloop
  endfacet
  facet normal 0 -0.55561 0.831443
    outer loop
      vertex 0 29.948 5.81127
      vertex 2.4 29.6 5.57872
      vertex 2.4 29.948 5.81127
    endloop
  endfacet
  facet normal 0 -0.55561 0.831443
    outer loop
      vertex 2.4 29.6 5.57872
      vertex 0 29.948 5.81127
      vertex 0 29.6 5.57872
    endloop
  endfacet
  facet normal 0 -0.997855 -0.0654598
    outer loop
      vertex 0 31.2 8.35
      vertex 2.4 31.1726 8.76768
      vertex 0 31.1726 8.76768
    endloop
  endfacet
  facet normal 0 -0.997855 -0.0654598
    outer loop
      vertex 2.4 31.1726 8.76768
      vertex 0 31.2 8.35
      vertex 2.4 31.2 8.35
    endloop
  endfacet
  facet normal 0 -0.195105 0.980782
    outer loop
      vertex 0 28.8282 5.25904
      vertex 2.4 28.4177 5.17738
      vertex 2.4 28.8282 5.25904
    endloop
  endfacet
  facet normal 0 -0.195105 0.980782
    outer loop
      vertex 2.4 28.4177 5.17738
      vertex 0 28.8282 5.25904
      vertex 0 28.4177 5.17738
    endloop
  endfacet
  facet normal 0 -0.980813 0.194949
    outer loop
      vertex 0 31.091 7.52178
      vertex 2.4 31.1726 7.93232
      vertex 0 31.1726 7.93232
    endloop
  endfacet
  facet normal 0 -0.980813 0.194949
    outer loop
      vertex 2.4 31.1726 7.93232
      vertex 0 31.091 7.52178
      vertex 2.4 31.091 7.52178
    endloop
  endfacet
  facet normal -0 0.55561 0.831443
    outer loop
      vertex 0 26.4 5.57872
      vertex 2.4 26.052 5.81127
      vertex 2.4 26.4 5.57872
    endloop
  endfacet
  facet normal 0 0.55561 0.831443
    outer loop
      vertex 2.4 26.052 5.81127
      vertex 0 26.4 5.57872
      vertex 0 26.052 5.81127
    endloop
  endfacet
  facet normal 0 -0.194967 -0.98081
    outer loop
      vertex 0 28.4177 11.5226
      vertex 2.4 28.8282 11.441
      vertex 2.4 28.4177 11.5226
    endloop
  endfacet
  facet normal -0 -0.194967 -0.98081
    outer loop
      vertex 2.4 28.8282 11.441
      vertex 0 28.4177 11.5226
      vertex 0 28.8282 11.441
    endloop
  endfacet
  facet normal 0 0.831388 -0.555692
    outer loop
      vertex 2.4 25.2287 9.95
      vertex 0 25.4613 10.298
      vertex 2.4 25.4613 10.298
    endloop
  endfacet
  facet normal 0 0.831388 -0.555692
    outer loop
      vertex 0 25.4613 10.298
      vertex 2.4 25.2287 9.95
      vertex 0 25.2287 9.95
    endloop
  endfacet
  facet normal 0 0.0654566 -0.997855
    outer loop
      vertex 0 27.5823 11.5226
      vertex 2.4 28 11.55
      vertex 2.4 27.5823 11.5226
    endloop
  endfacet
  facet normal 0 0.0654566 -0.997855
    outer loop
      vertex 2.4 28 11.55
      vertex 0 27.5823 11.5226
      vertex 0 28 11.55
    endloop
  endfacet
  facet normal 0 0.997855 0.0654598
    outer loop
      vertex 2.4 24.8274 7.93232
      vertex 0 24.8 8.35
      vertex 2.4 24.8 8.35
    endloop
  endfacet
  facet normal 0 0.997855 0.0654598
    outer loop
      vertex 0 24.8 8.35
      vertex 2.4 24.8274 7.93232
      vertex 0 24.8274 7.93232
    endloop
  endfacet
  facet normal 0 0.896903 0.442228
    outer loop
      vertex 2.4 25.2287 6.75
      vertex 0 25.0436 7.12541
      vertex 2.4 25.0436 7.12541
    endloop
  endfacet
  facet normal 0 0.896903 0.442228
    outer loop
      vertex 0 25.0436 7.12541
      vertex 2.4 25.2287 6.75
      vertex 0 25.2287 6.75
    endloop
  endfacet
  facet normal -0 0.195105 0.980782
    outer loop
      vertex 0 27.5823 5.17738
      vertex 2.4 27.1718 5.25904
      vertex 2.4 27.5823 5.17738
    endloop
  endfacet
  facet normal 0 0.195105 0.980782
    outer loop
      vertex 2.4 27.1718 5.25904
      vertex 0 27.5823 5.17738
      vertex 0 27.1718 5.25904
    endloop
  endfacet
  facet normal 0 -0.946893 0.321548
    outer loop
      vertex 0 30.9564 7.12541
      vertex 2.4 31.091 7.52178
      vertex 0 31.091 7.52178
    endloop
  endfacet
  facet normal 0 -0.946893 0.321548
    outer loop
      vertex 2.4 31.091 7.52178
      vertex 0 30.9564 7.12541
      vertex 2.4 30.9564 7.12541
    endloop
  endfacet
  facet normal 0 0.831418 0.555648
    outer loop
      vertex 2.4 25.4613 6.40196
      vertex 0 25.2287 6.75
      vertex 2.4 25.2287 6.75
    endloop
  endfacet
  facet normal 0 0.831418 0.555648
    outer loop
      vertex 0 25.2287 6.75
      vertex 2.4 25.4613 6.40196
      vertex 0 25.4613 6.40196
    endloop
  endfacet
  facet normal 0 0.896903 -0.442228
    outer loop
      vertex 2.4 25.0436 9.57459
      vertex 0 25.2287 9.95
      vertex 2.4 25.2287 9.95
    endloop
  endfacet
  facet normal 0 0.896903 -0.442228
    outer loop
      vertex 0 25.2287 9.95
      vertex 2.4 25.0436 9.57459
      vertex 0 25.0436 9.57459
    endloop
  endfacet
  facet normal 0 -0.321526 -0.946901
    outer loop
      vertex 0 28.8282 11.441
      vertex 2.4 29.2246 11.3064
      vertex 2.4 28.8282 11.441
    endloop
  endfacet
  facet normal -0 -0.321526 -0.946901
    outer loop
      vertex 2.4 29.2246 11.3064
      vertex 0 28.8282 11.441
      vertex 0 29.2246 11.3064
    endloop
  endfacet
  facet normal 0 -0.946893 -0.321548
    outer loop
      vertex 0 31.091 9.17822
      vertex 2.4 30.9564 9.57459
      vertex 0 30.9564 9.57459
    endloop
  endfacet
  facet normal 0 -0.946893 -0.321548
    outer loop
      vertex 2.4 30.9564 9.57459
      vertex 0 31.091 9.17822
      vertex 2.4 31.091 9.17822
    endloop
  endfacet
  facet normal 0 0.946893 -0.321548
    outer loop
      vertex 2.4 24.909 9.17822
      vertex 0 25.0436 9.57459
      vertex 2.4 25.0436 9.57459
    endloop
  endfacet
  facet normal 0 0.946893 -0.321548
    outer loop
      vertex 0 25.0436 9.57459
      vertex 2.4 24.909 9.17822
      vertex 0 24.909 9.17822
    endloop
  endfacet
  facet normal 0 -0.997855 0.0654598
    outer loop
      vertex 0 31.1726 7.93232
      vertex 2.4 31.2 8.35
      vertex 0 31.2 8.35
    endloop
  endfacet
  facet normal 0 -0.997855 0.0654598
    outer loop
      vertex 2.4 31.2 8.35
      vertex 0 31.1726 7.93232
      vertex 2.4 31.1726 7.93232
    endloop
  endfacet
  facet normal 0 -0.751821 -0.659367
    outer loop
      vertex 0 30.5387 10.298
      vertex 2.4 30.2627 10.6127
      vertex 0 30.2627 10.6127
    endloop
  endfacet
  facet normal 0 -0.751821 -0.659367
    outer loop
      vertex 2.4 30.2627 10.6127
      vertex 0 30.5387 10.298
      vertex 2.4 30.5387 10.298
    endloop
  endfacet
  facet normal 0 -0.442237 -0.896898
    outer loop
      vertex 0 29.2246 11.3064
      vertex 2.4 29.6 11.1213
      vertex 2.4 29.2246 11.3064
    endloop
  endfacet
  facet normal -0 -0.442237 -0.896898
    outer loop
      vertex 2.4 29.6 11.1213
      vertex 0 29.2246 11.3064
      vertex 0 29.6 11.1213
    endloop
  endfacet
  facet normal 0 0.980813 -0.194949
    outer loop
      vertex 2.4 24.8274 8.76768
      vertex 0 24.909 9.17822
      vertex 2.4 24.909 9.17822
    endloop
  endfacet
  facet normal 0 0.980813 -0.194949
    outer loop
      vertex 0 24.909 9.17822
      vertex 2.4 24.8274 8.76768
      vertex 0 24.8274 8.76768
    endloop
  endfacet
  facet normal 0 0.751821 -0.659367
    outer loop
      vertex 2.4 25.4613 10.298
      vertex 0 25.7373 10.6127
      vertex 2.4 25.7373 10.6127
    endloop
  endfacet
  facet normal 0 0.751821 -0.659367
    outer loop
      vertex 0 25.7373 10.6127
      vertex 2.4 25.4613 10.298
      vertex 0 25.4613 10.298
    endloop
  endfacet
endsolid OpenSCAD_Model
